<?xml version="1.0" encoding="UTF-8"?><svg id="Layer_2" xmlns="http://www.w3.org/2000/svg" viewBox="0 0 376.1 338.5"><defs><style>.cls-1{fill:#27aae1;}</style></defs><g id="Layer_1-2"><g><path class="cls-1" d="M280.9,288.1h-86.4V106.7c0,0,0-.1,0-.2l39.6-68.5h-92.1l39.6,68.5c0,0,0,.1,0,.2v181.5H95.2v48.8h185.7v-48.8ZM207.9,53.8l-19.9,34.5-19.9-34.5h39.8Z"/><path class="cls-1" d="M369.6,325.5h-19.4V71.3c0-3.6-2.9-6.5-6.5-6.5h-32.1L293.2,0l-11.9,3.4,40.3,142.2,11.9-3.4-18.2-64.4h22v247.7h-19.4c-3.6,0-6.5,2.9-6.5,6.5s2.9,6.5,6.5,6.5h51.8c3.6,0,6.5-2.9,6.5-6.5s-2.9-6.5-6.5-6.5Z"/><path class="cls-1" d="M64.8,332c0-3.6-2.9-6.5-6.5-6.5h-19.4V77.8h22l-18.2,64.4,11.9,3.4L94.7,3.4l-11.9-3.4-18.3,64.8H32.4c-3.6,0-6.5,2.9-6.5,6.5v254.2H6.5c-3.6,0-6.5,2.9-6.5,6.5s2.9,6.5,6.5,6.5H58.3c3.6,0,6.5-2.9,6.5-6.5Z"/></g></g></svg>