<?xml version="1.0" encoding="UTF-8"?><svg id="Layer_2" xmlns="http://www.w3.org/2000/svg" viewBox="0 0 401.2 302.4"><defs><style>.cls-1{fill:#27aae1;}</style></defs><g id="Layer_1-2"><g><rect class="cls-1" x="64.9" width="272.9" height="44.9"/><rect class="cls-1" x="75" y="52.3" width="252.6" height="249.3"/><path class="cls-1" d="M366.2,29.9c3.3-.6,5.8-3.5,5.8-7v-.8c0-4-3.2-7.2-7.2-7.2h-18v15.1h10.3V302.4h9v-38.2l24.3,38.2h10.7l-35-54.9V29.9Z"/><path class="cls-1" d="M29.2,22v.8c0,3.5,2.5,6.4,5.8,7V247.5L0,302.4H10.7l24.3-38.2v38.2h9V30h10.3V14.9h-18c-4,0-7.2,3.2-7.2,7.2Z"/></g></g></svg>