<?xml version="1.0" encoding="UTF-8"?><svg id="Layer_2" xmlns="http://www.w3.org/2000/svg" viewBox="0 0 300.8 330.9"><defs><style>.cls-1{fill:#27aae1;}</style></defs><g id="Layer_1-2"><g><path class="cls-1" d="M84,55.1c0,60.9-37.6,110.2-84,110.2,46.4,0,84,49.3,84,110.2,0-60.9,37.6-110.2,84-110.2-46.4,0-84-49.3-84-110.2Z"/><path class="cls-1" d="M234.4,0c0,48.2-29.8,87.2-66.5,87.2,36.7,0,66.5,39,66.5,87.2,0-48.2,29.8-87.2,66.5-87.2-36.7,0-66.5-39.1-66.5-87.2Z"/><path class="cls-1" d="M213.7,188.8c0,39.2-24.2,71-54.1,71,29.9,0,54.1,31.8,54.1,71,0-39.2,24.2-71,54.1-71-29.9,0-54.1-31.8-54.1-71Z"/></g></g></svg>