<?xml version="1.0" encoding="UTF-8"?><svg id="Layer_2" xmlns="http://www.w3.org/2000/svg" viewBox="0 0 266.1 375.7"><defs><style>.cls-1{fill:#27aae1;}</style></defs><g id="Layer_1-2"><g><path class="cls-1" d="M266.1,127.7c-27.6-36.2-33.4-74.9-34.5-85.1-40.4,13.2-79.2,45.8-92.2,57.4,65.6,1.2,112.9,21.1,126.7,27.7Z"/><path class="cls-1" d="M2.4,132.1c8.2,7.6,29,30,42.1,72.8,22.9-37.7,50.4-71.2,81.9-99.8-64.2,1.3-110.4,20.6-124,27Z"/><path class="cls-1" d="M130.5,0c-8.6,6.2-39.2,26.4-91.2,39,40.6,14.3,78.7,46.6,91.2,57.8V0Z"/><path class="cls-1" d="M135.5,0V96.8c12.4-11.2,50.6-43.5,91.2-57.8C174.7,26.4,144.1,6.2,135.5,0Z"/><path class="cls-1" d="M34.5,42.6c-1.1,10.2-7,48.9-34.5,85.1,13.8-6.5,61.1-26.4,126.7-27.7-13-11.7-51.7-44.3-92.2-57.4Z"/><path class="cls-1" d="M221.6,204.9c13.1-42.8,33.9-65.2,42.1-72.8-13.7-6.4-59.8-25.8-124-27,31.5,28.6,59.1,62.2,81.9,99.8Z"/><path class="cls-1" d="M107.2,159.4c0,4.1,1.1,8,3.3,11.4v-3.4s0,0,0-.1c0,0,0-.1,0-.2,0-.1,0-.2,0-.4,0,0,0,0,0-.1l5.2-16c.3-1,1.3-1.7,2.4-1.7h27.6c1.1,0,2,.7,2.4,1.7l5.2,16s0,0,0,.1c0,.1,0,.2,0,.4,0,0,0,.1,0,.2,0,0,0,0,0,.1v6.2c3.4-4.1,5.4-9,5.4-14.3,0-12.9-11.6-23.4-25.8-23.4s-25.8,10.5-25.8,23.4Z"/><polygon class="cls-1" points="120 154 116.5 165 147.6 165 144 154 120 154"/><path class="cls-1" d="M163.8,159.4c0,8.2-3.8,15.8-10.4,21.2v22.5c0,1.4-1.1,2.5-2.5,2.5h-8.5v30c25.4-19.8,64.7-25.9,75.3-27.2-22.9-37.9-50.6-71.6-82.3-100.3v22.9s0,0,0,.1c15.8,1.2,28.3,13.4,28.3,28.3Z"/><path class="cls-1" d="M130.5,108.1c-31.7,28.7-59.4,62.4-82.3,100.3,11.4,1.4,55.5,8.3,80.3,31.5v19.6h-36.8c-4.3,0-7.8,3.5-7.8,7.8v100.6c0,4.3,3.5,7.8,7.8,7.8h82.5c4.3,0,7.8-3.5,7.8-7.8v-100.6c0-4.3-3.5-7.8-7.8-7.8h-36.8v-19.6h0v-34.2h0v-5h11v-30.7h-33v30.7h13v5h-15.5c-1.4,0-2.5-1.1-2.5-2.5v-24.3c-5.4-5.3-8.3-12.1-8.3-19.4,0-14.9,12.5-27.1,28.3-28.3,0,0,0,0,0-.1v-22.9Zm41.1,255.8H97.6v-49.3h74.1v49.3Zm-37-87.5c7.7,0,14,6.3,14,14s-6.3,14-14,14-14-6.3-14-14,6.3-14,14-14Z"/><circle class="cls-1" cx="134.6" cy="290.5" r="8.6"/></g></g></svg>