<?xml version="1.0" encoding="UTF-8"?><svg id="Layer_2" xmlns="http://www.w3.org/2000/svg" viewBox="0 0 335.8 212.9"><defs><style>.cls-1{fill:#27aae1;}</style></defs><g id="Layer_1-2"><g><path class="cls-1" d="M0,0V192.6H41.6l-6.6-19.8c-.4-1.3-.2-2.7,.6-3.8,.8-1.1,2.1-1.7,3.4-1.7h20.9V72.7h220.1v94.6h20.9c1.3,0,2.6,.7,3.4,1.7,.8,1.1,1,2.5,.6,3.8l-6.6,19.8h37.4V0H0ZM280,42.2H55.8v-10.1h224.3v10.1Z"/><path class="cls-1" d="M40.1,172.3l13.5,40.6h232.7l13.5-40.6h-119.7v4.6c0,6.8-5.5,12.3-12.3,12.3s-12.3-5.5-12.3-12.3v-4.6H40.1Z"/></g></g></svg>