<?xml version="1.0" encoding="UTF-8"?><svg id="Layer_2" xmlns="http://www.w3.org/2000/svg" viewBox="0 0 361.7 319.5"><defs><style>.cls-1{fill:#27aae1;}</style></defs><g id="Layer_1-2"><g><path class="cls-1" d="M359.7,128l-130.4-36.5-5.4-1.5-13.7-3.8-52.6-14.7c-1.5-.4-3,.4-3.4,1.9l-42.5,151.9-2.9,10.2-6.7,23.9c-.4,1.5,.4,3,1.9,3.4l202.2,56.5c1.5,.4,3-.4,3.4-1.9l52-186c.4-1.5-.4-3-1.9-3.4Zm-9.5,9.8l-47,168.2c-.4,1.5-1.9,2.3-3.4,1.9l-184.3-51.6c-1.5-.4-2.3-1.9-1.9-3.4l5.6-20,1.2-4.3,18.6-66.7,21.6-77.2c.4-1.5,1.9-2.3,3.4-1.9l48.7,13.6,13.7,3.8,10.2,2.9,111.6,31.2c1.5,.4,2.3,1.9,1.9,3.4Z"/><path class="cls-1" d="M189.9,25.3L28.1,64.9c-1.5,.4-2.4,1.9-2,3.4l25.8,105.2c.4,1.5,1.9,2.4,3.4,2l64.8-15.9c1-.2,1.7-1,2-2l26.2-93.7c.4-1.5,1.9-2.3,3.4-1.9h0l49.2,13.8c2,.6,4-1.3,3.4-3.3l-11.1-45.2c-.4-1.5-1.9-2.4-3.4-2Z"/><path class="cls-1" d="M102.1,228.7l1.1-4.1c.6-2-1.3-4-3.3-3.4l-43.7,10.7c-1.5,.4-3-.5-3.4-2L11.3,60.2c-.4-1.5,.5-3,2-3.4L199.2,11.3c1.5-.4,3,.5,3.4,2l16.2,66c.2,1,1,1.7,1.9,2l4.1,1.1c2,.6,4-1.3,3.4-3.3L209.4,2.1c-.4-1.5-1.9-2.4-3.4-2L2.1,50c-1.5,.4-2.4,1.9-2,3.4L46,241c.4,1.5,1.9,2.4,3.4,2l50.7-12.4c1-.2,1.7-1,2-2Z"/><path class="cls-1" d="M336.7,140.1h0l-165.8-46.4h0c-1.5-.4-3,.4-3.4,1.9h0l-30.7,109.7h0c-.4,1.5,.4,3,1.9,3.4h0l165.8,46.4c1.5,.4,3-.4,3.4-1.9h0l30.7-109.7h0c.4-1.5-.4-3-1.9-3.4Z"/></g></g></svg>