<?xml version="1.0" encoding="UTF-8"?><svg id="Layer_2" xmlns="http://www.w3.org/2000/svg" viewBox="0 0 266.7 330.9"><defs><style>.cls-1{fill:#27aae1;}</style></defs><g id="Layer_1-2"><g><path class="cls-1" d="M133.3,0C59.8,0,0,52.2,0,116.4s13.4,59.3,37.8,81.2c.9,.8,1.2,2.1,.9,3.2-5.3,16-12.9,31.3-22.5,45.6,13.5-2.8,43.3-9.7,67.8-21,.7-.3,1.5-.4,2.2-.1,15.1,5,31,7.5,47.2,7.5,73.5,0,133.3-52.2,133.3-116.4S206.9,0,133.3,0Z"/><path class="cls-1" d="M125.7,238.7v92.2h15.4v-92.2c-2.5,.1-5.1,.2-7.7,.2s-5.1,0-7.7-.2Z"/></g></g></svg>