<?xml version="1.0" encoding="UTF-8"?><svg id="Layer_2" xmlns="http://www.w3.org/2000/svg" viewBox="0 0 282.8 304.5"><defs><style>.cls-1{fill:#27aae1;}</style></defs><g id="Layer_1-2"><g><path class="cls-1" d="M74.7,162.5c10.1,0,18.8-6.5,22-15.5,.5-1.9,.8-4,.8-6.1,0-12.6-10.3-22.9-22.9-22.9s-22.9,10.3-22.9,22.9,.3,4.1,.8,6c3.2,9.1,11.9,15.6,22.1,15.6Zm0-31.2c5.3,0,9.6,4.3,9.6,9.6s-4.3,9.6-9.6,9.6-9.6-4.3-9.6-9.6,4.3-9.6,9.6-9.6Z"/><path class="cls-1" d="M127.9,171.3v-60.7c0-3.4-2.8-6.2-6.2-6.2H27.7c-3.4,0-6.2,2.8-6.2,6.2v60.7c0,3.4,2.8,6.2,6.2,6.2h20.5c-12.5-8.6-20.2-22.9-20.2-38.4s1.4-6.4,3.8-8.6c2.4-2.2,5.6-3.3,8.9-3,3.5,.3,6.6,2.3,8.5,5.1,3.5-10.7,13.6-18.5,25.5-18.5s21.9,7.7,25.5,18.4c.5-.6,1-1.3,1.6-1.8,2.3-2.2,5.4-3.3,8.6-3.2,6.3,.3,11.1,5.7,11,12.3-.2,14.8-7.5,28.6-19.5,37.3l.2,.5h19.6c3.4,0,6.2-2.8,6.2-6.2Z"/><path class="cls-1" d="M169.7,193.3c0-1.1,.9-2,2-2h0v-.3c-9.3,4.8-19.8,7.5-31,7.5s-23.2-3-33.3-8.7l.9,2.1c.4-.4,.9-.6,1.4-.6,1.1,0,2,.9,2,2,0,16,13,29,29,29s29-13,29-29Z"/><path class="cls-1" d="M282.8,282.3c0-43.7-35.5-79.2-79.2-79.2h-31.5c-4.2,13.4-16.7,23.2-31.5,23.2s-15.4-2.9-21.2-7.7l18.3,43.4h78v-19.9c0-1.1,.9-2,2-2s2,.9,2,2v19.9h16.8c1.1,0,2,.9,2,2s-.9,2-2,2h-53.8v38.5h100.1v-22.2Z"/><path class="cls-1" d="M85.3,37.8h64.3c12.9,0,23.4,10.5,23.4,23.4s3.9,12.4,10,14.9c6.4,2.6,9,3.9,10,4.9,7.1,1.5,12.9,6.9,14.9,13.8,4.6,.1,8.9,1.6,12.5,4.1v-27.1C220.3,32.2,188.1,0,148.5,0s-50.8,14.7-63.2,37.8Z"/><path class="cls-1" d="M57.1,304.5v-116c0-.3,0-.5,.1-.7l-2.4-6.3H27.7c-5.6,0-10.2-4.6-10.2-10.2v-60.7c0-5.6,4.6-10.2,10.2-10.2h13.8l-3.9-6.6c-1.7-2.9-4.8-4.6-8.1-4.6H10.9c-6,0-10.9,4.9-10.9,10.9v65.3c0,5.3,2.3,10.4,6.3,13.9l14.6,12.9c.4,.4,.7,.9,.7,1.5v110.9H57.1Z"/><polygon class="cls-1" points="93 100.4 89.1 84.6 74.7 84.6 73.1 84.6 60.4 84.6 56.4 100.4 93 100.4"/><path class="cls-1" d="M208.5,98.8c0,.6,0,1.1,0,1.7v30c0,2.3-.1,4.6-.3,6.9,10.1-.6,18.2-9,18.2-19.3s-7.9-18.6-17.9-19.3Z"/><path class="cls-1" d="M53.7,61.2c0,10.7,8.7,19.4,19.4,19.4h110.1c-.6-.2-1.2-.5-1.8-.8-7.5-3.1-12.4-10.4-12.4-18.6s-8.7-19.4-19.4-19.4H73.1c-10.7,0-19.4,8.7-19.4,19.4Z"/><path class="cls-1" d="M140.7,194.5c35.3,0,63.9-28.7,63.9-63.9v-30c0-8.8-7.2-16-16-16H93.2l4,15.8h24.6c5.6,0,10.2,4.6,10.2,10.2v60.7c0,5.6-4.6,10.2-10.2,10.2h-17.9l.8,1.9c10.6,7.3,23.1,11.1,36,11.1Zm27.6-84.4c3.3,0,6.1,2.7,6.1,6.1s-2.7,6.1-6.1,6.1-6.1-2.7-6.1-6.1,2.7-6.1,6.1-6.1Z"/><path class="cls-1" d="M108.6,304.5c-5-3-9-7.7-11.2-13.3l-36.3-93.5v105.8h1.2l-1.1,1h47.4Z"/><path class="cls-1" d="M178.8,265.9h-42.3c-.8,0-1.5-.5-1.8-1.2l-37-87.7c-.4-.9,0-1.9,.7-2.4,11.7-7.8,18.9-20.9,19.1-34.9,0-4.4-3.1-8-7.2-8.2-2.1-.1-4.1,.6-5.7,2.1-1.5,1.5-2.4,3.4-2.4,5.5,0,3.2-.6,6.3-1.6,9.1-3.2,11.3-13.6,19.6-25.8,19.6s-22.8-8.4-25.9-19.7c-1-2.8-1.5-5.7-1.5-8.8,0-4-3.1-7.5-6.9-7.8-2.2-.2-4.3,.5-5.9,2-1.6,1.4-2.5,3.5-2.5,5.6,0,16.3,9.4,31.3,24.1,38.4h.2c1.1,0,2,.9,2,1.9l42.8,110.3c3.4,8.8,12.1,14.8,21.5,14.8h56.1v-38.5Z"/></g></g></svg>