<?xml version="1.0" encoding="UTF-8"?><svg id="Layer_2" xmlns="http://www.w3.org/2000/svg" viewBox="0 0 176.8 342.7"><defs><style>.cls-1{fill:#27aae1;}</style></defs><g id="Layer_1-2"><g><path class="cls-1" d="M61.7,278v64.7h53.3v-64.7c-8.5,2.5-17.4,3.9-26.7,3.9s-18.2-1.4-26.7-3.9Z"/><path class="cls-1" d="M71.4,272.1h0c2.1,.4,4.3,.8,6.5,1,.1,0,.3,0,.4,0,2.1,.2,4.2,.4,6.3,.5,.2,0,.5,0,.7,0,1,0,2.1,0,3.1,0s2.1,0,3.1,0c.2,0,.5,0,.7,0,2.1,0,4.2-.3,6.3-.5,.1,0,.3,0,.4,0,2.2-.3,4.4-.6,6.5-1h0c40.6-7.9,71.4-43.8,71.4-86.7V88.4C176.8,39.7,137.1,0,88.4,0S0,39.7,0,88.4v97c0,42.9,30.8,78.8,71.4,86.7ZM7.9,90.4C7.9,46.1,44,10,88.4,10s80.5,36.1,80.5,80.5v92.9c0,44.4-36.1,80.5-80.5,80.5S7.9,227.7,7.9,183.3V90.4Z"/><path class="cls-1" d="M88.4,245.3c34.2,0,61.9-27.8,61.9-61.9V90.4c0-34.2-27.8-61.9-61.9-61.9S26.5,56.3,26.5,90.4v92.9c0,34.2,27.8,61.9,61.9,61.9ZM44.1,80.9h87.6v117.6H44.1V80.9Z"/></g></g></svg>