<?xml version="1.0" encoding="UTF-8"?>
<svg id="Layer_2" data-name="Layer 2" xmlns="http://www.w3.org/2000/svg" viewBox="0 0 771.63 286.57">
  <defs>
    <style>
      .cls-1 {
        fill: #39a9dc;
      }

      .cls-1, .cls-2, .cls-3, .cls-4, .cls-5, .cls-6, .cls-7 {
        stroke-width: 0px;
      }

      .cls-2 {
        fill: #0b72b5;
      }

      .cls-3 {
        fill: #0d3183;
      }

      .cls-4 {
        fill: #093281;
      }

      .cls-5 {
        fill: #1e5e8d;
      }

      .cls-6 {
        fill: #172983;
      }

      .cls-7 {
        fill: #fff;
      }
    </style>
  </defs>
  <g id="Original_logo" data-name="Original logo">
    <g>
      <g id="Text">
        <g>
          <path class="cls-4" d="m245.3,255.04c.29-.03.69-.08,1.21-.15.52-.07,1.09-.13,1.7-.17.62-.04,1.25-.09,1.9-.13s1.23-.06,1.75-.06c1.7,0,3.24.17,4.62.52,1.38.34,2.57.89,3.56,1.64.99.75,1.76,1.72,2.31,2.91.55,1.19.82,2.64.82,4.33,0,1.81-.31,3.36-.93,4.66-.62,1.29-1.45,2.34-2.5,3.15-1.05.81-2.27,1.4-3.67,1.77-1.4.37-2.85.56-4.38.56-.66,0-1.24-.01-1.73-.04-.49-.03-1.05-.07-1.68-.13v12.16c-.2.03-.43.05-.69.06s-.52.02-.78.02c-.29,0-.57,0-.84-.02-.27-.01-.5-.04-.67-.06v-31.01Zm2.98,16.09c.29.03.54.05.75.06.22.01.43.03.65.04.22.01.46.03.73.04.27.01.63.02,1.06.02,1.04,0,2.06-.09,3.06-.26,1.01-.17,1.92-.52,2.74-1.06.82-.53,1.48-1.28,1.98-2.24.5-.96.75-2.24.75-3.82,0-1.27-.19-2.32-.58-3.17-.39-.85-.94-1.53-1.66-2.05s-1.6-.89-2.63-1.12-2.19-.35-3.45-.35c-.75,0-1.41.02-1.98.07s-1.05.09-1.42.15v13.67Z"/>
          <path class="cls-4" d="m276.31,255.04c.2-.03.45-.05.73-.06.29-.01.55-.02.78-.02.26,0,.52,0,.78.02s.49.04.69.06v13.2h15.27v-13.2c.2-.03.43-.05.69-.06s.52-.02.78-.02c.23,0,.49,0,.78.02.29.01.53.04.73.06v31.01c-.17.03-.4.05-.67.06-.27.01-.55.02-.84.02-.26,0-.52,0-.78-.02s-.49-.04-.69-.06v-15.1h-15.27v15.1c-.2.03-.43.05-.69.06s-.52.02-.78.02c-.29,0-.57,0-.84-.02-.27-.01-.5-.04-.67-.06v-31.01Z"/>
          <path class="cls-4" d="m324.58,286.57c-2.16,0-4.04-.4-5.65-1.19-1.61-.79-2.94-1.9-3.99-3.32-1.05-1.42-1.84-3.12-2.37-5.09-.53-1.97-.8-4.12-.8-6.45s.27-4.47.8-6.43c.53-1.96,1.32-3.64,2.37-5.07,1.05-1.42,2.38-2.53,3.99-3.32,1.61-.79,3.49-1.19,5.65-1.19s4.04.4,5.65,1.19c1.61.79,2.94,1.9,3.99,3.32,1.05,1.42,1.84,3.11,2.37,5.07.53,1.96.8,4.1.8,6.43s-.27,4.48-.8,6.45c-.53,1.97-1.32,3.67-2.37,5.09-1.05,1.42-2.38,2.53-3.99,3.32-1.61.79-3.49,1.19-5.65,1.19Zm0-2.72c1.67,0,3.11-.32,4.31-.97,1.21-.65,2.21-1.56,3.02-2.74.8-1.18,1.4-2.59,1.79-4.23.39-1.64.58-3.44.58-5.39s-.19-3.75-.58-5.39c-.39-1.64-.99-3.04-1.79-4.21-.81-1.17-1.81-2.07-3.02-2.72-1.21-.65-2.65-.97-4.31-.97s-3.11.32-4.33.97c-1.22.65-2.23,1.55-3.02,2.72-.79,1.16-1.38,2.57-1.77,4.21-.39,1.64-.58,3.44-.58,5.39s.19,3.75.58,5.39c.39,1.64.98,3.05,1.77,4.23.79,1.18,1.8,2.09,3.02,2.74,1.22.65,2.67.97,4.33.97Z"/>
          <path class="cls-4" d="m354.82,257.71h-8.32c-.03-.17-.05-.38-.06-.62-.01-.24-.02-.48-.02-.71,0-.2,0-.43.02-.69.01-.26.04-.47.06-.65h19.63c.03.17.05.37.06.6.01.23.02.46.02.69,0,.2,0,.44-.02.71-.02.27-.04.5-.06.67h-8.32v28.34c-.2.03-.43.05-.69.06s-.52.02-.78.02c-.29,0-.57,0-.84-.02-.27-.01-.5-.04-.67-.06v-28.34Z"/>
          <path class="cls-4" d="m388.03,286.57c-2.16,0-4.04-.4-5.65-1.19-1.61-.79-2.94-1.9-3.99-3.32-1.05-1.42-1.84-3.12-2.37-5.09-.53-1.97-.8-4.12-.8-6.45s.27-4.47.8-6.43c.53-1.96,1.32-3.64,2.37-5.07,1.05-1.42,2.38-2.53,3.99-3.32,1.61-.79,3.49-1.19,5.65-1.19s4.04.4,5.65,1.19c1.61.79,2.94,1.9,3.99,3.32,1.05,1.42,1.84,3.11,2.37,5.07.53,1.96.8,4.1.8,6.43s-.27,4.48-.8,6.45c-.53,1.97-1.32,3.67-2.37,5.09-1.05,1.42-2.38,2.53-3.99,3.32-1.61.79-3.49,1.19-5.65,1.19Zm0-2.72c1.67,0,3.11-.32,4.31-.97,1.21-.65,2.21-1.56,3.02-2.74.81-1.18,1.4-2.59,1.79-4.23.39-1.64.58-3.44.58-5.39s-.19-3.75-.58-5.39c-.39-1.64-.98-3.04-1.79-4.21-.8-1.17-1.81-2.07-3.02-2.72-1.21-.65-2.65-.97-4.31-.97s-3.11.32-4.33.97c-1.22.65-2.23,1.55-3.02,2.72-.79,1.16-1.38,2.57-1.77,4.21-.39,1.64-.58,3.44-.58,5.39s.19,3.75.58,5.39c.39,1.64.98,3.05,1.77,4.23.79,1.18,1.8,2.09,3.02,2.74,1.22.65,2.67.97,4.33.97Z"/>
          <path class="cls-4" d="m432.97,255.04c.29-.03.7-.07,1.23-.13.53-.06,1.1-.11,1.7-.17.6-.06,1.21-.1,1.83-.13.62-.03,1.17-.04,1.66-.04,3.39,0,6,.65,7.81,1.96s2.72,3.34,2.72,6.09c0,.89-.14,1.7-.41,2.43-.27.73-.64,1.39-1.1,1.98-.46.59-1,1.08-1.62,1.49-.62.4-1.26.7-1.92.9.89.12,1.75.35,2.59.71.83.36,1.57.86,2.22,1.51.65.65,1.17,1.46,1.55,2.42.39.96.58,2.12.58,3.48,0,1.56-.31,2.89-.93,4.02s-1.48,2.06-2.59,2.81c-1.11.75-2.42,1.3-3.92,1.66-1.51.36-3.16.54-4.94.54-.46,0-.98-.01-1.55-.04-.58-.03-1.16-.06-1.75-.11-.59-.04-1.16-.1-1.72-.17-.56-.07-1.04-.14-1.45-.19v-31.01Zm7.07,13.2c2.33,0,4.03-.52,5.11-1.55,1.08-1.04,1.62-2.39,1.62-4.05,0-1.55-.57-2.85-1.7-3.9-1.14-1.05-2.93-1.57-5.37-1.57-.75,0-1.46.03-2.13.09-.68.06-1.21.12-1.62.17v10.83h4.1Zm-4.1,15.4c.4.06.94.11,1.62.15.67.04,1.39.06,2.13.06,1.12,0,2.22-.1,3.3-.3,1.08-.2,2.03-.55,2.87-1.04.83-.49,1.5-1.14,2.01-1.94s.75-1.81.75-3.02-.22-2.22-.65-3.04c-.43-.82-1.02-1.49-1.77-2.01-.75-.52-1.62-.89-2.63-1.12s-2.08-.35-3.23-.35h-4.4v12.6Z"/>
          <path class="cls-4" d="m476.62,286.57c-2.16,0-4.04-.4-5.65-1.19-1.61-.79-2.94-1.9-3.99-3.32-1.05-1.42-1.84-3.12-2.37-5.09-.53-1.97-.8-4.12-.8-6.45s.27-4.47.8-6.43c.53-1.96,1.32-3.64,2.37-5.07,1.05-1.42,2.38-2.53,3.99-3.32,1.61-.79,3.49-1.19,5.65-1.19s4.04.4,5.65,1.19c1.61.79,2.94,1.9,3.99,3.32,1.05,1.42,1.84,3.11,2.37,5.07.53,1.96.8,4.1.8,6.43s-.27,4.48-.8,6.45c-.53,1.97-1.32,3.67-2.37,5.09-1.05,1.42-2.38,2.53-3.99,3.32-1.61.79-3.49,1.19-5.65,1.19Zm0-2.72c1.67,0,3.11-.32,4.31-.97,1.21-.65,2.21-1.56,3.02-2.74.81-1.18,1.4-2.59,1.79-4.23.39-1.64.58-3.44.58-5.39s-.19-3.75-.58-5.39c-.39-1.64-.98-3.04-1.79-4.21-.8-1.17-1.81-2.07-3.02-2.72-1.21-.65-2.65-.97-4.31-.97s-3.11.32-4.33.97c-1.22.65-2.23,1.55-3.02,2.72-.79,1.16-1.38,2.57-1.77,4.21-.39,1.64-.58,3.44-.58,5.39s.19,3.75.58,5.39c.39,1.64.98,3.05,1.77,4.23.79,1.18,1.8,2.09,3.02,2.74,1.22.65,2.67.97,4.33.97Z"/>
          <path class="cls-4" d="m514.88,286.57c-2.16,0-4.04-.4-5.65-1.19-1.61-.79-2.94-1.9-3.99-3.32-1.05-1.42-1.84-3.12-2.37-5.09-.53-1.97-.8-4.12-.8-6.45s.27-4.47.8-6.43c.53-1.96,1.32-3.64,2.37-5.07,1.05-1.42,2.38-2.53,3.99-3.32,1.61-.79,3.49-1.19,5.65-1.19s4.04.4,5.65,1.19c1.61.79,2.94,1.9,3.99,3.32,1.05,1.42,1.84,3.11,2.37,5.07.53,1.96.8,4.1.8,6.43s-.27,4.48-.8,6.45c-.53,1.97-1.32,3.67-2.37,5.09-1.05,1.42-2.38,2.53-3.99,3.32-1.61.79-3.49,1.19-5.65,1.19Zm0-2.72c1.67,0,3.11-.32,4.31-.97,1.21-.65,2.21-1.56,3.02-2.74.81-1.18,1.4-2.59,1.79-4.23.39-1.64.58-3.44.58-5.39s-.19-3.75-.58-5.39c-.39-1.64-.98-3.04-1.79-4.21-.8-1.17-1.81-2.07-3.02-2.72-1.21-.65-2.65-.97-4.31-.97s-3.11.32-4.33.97c-1.22.65-2.23,1.55-3.02,2.72-.79,1.16-1.38,2.57-1.77,4.21-.39,1.64-.58,3.44-.58,5.39s.19,3.75.58,5.39c.39,1.64.98,3.05,1.77,4.23.79,1.18,1.8,2.09,3.02,2.74,1.22.65,2.67.97,4.33.97Z"/>
          <path class="cls-4" d="m545.12,257.71h-8.33c-.03-.17-.05-.38-.06-.62s-.02-.48-.02-.71c0-.2,0-.43.02-.69s.04-.47.06-.65h19.63c.03.17.05.37.06.6.01.23.02.46.02.69,0,.2,0,.44-.02.71s-.04.5-.06.67h-8.32v28.34c-.2.03-.43.05-.69.06s-.52.02-.78.02c-.29,0-.57,0-.84-.02-.27-.01-.5-.04-.67-.06v-28.34Z"/>
          <path class="cls-4" d="m568.76,255.04c.2-.03.45-.05.73-.06.29-.01.55-.02.78-.02.26,0,.52,0,.78.02s.49.04.69.06v13.2h15.27v-13.2c.2-.03.43-.05.69-.06s.52-.02.78-.02c.23,0,.49,0,.78.02.29.01.53.04.73.06v31.01c-.17.03-.4.05-.67.06s-.55.02-.84.02c-.26,0-.52,0-.78-.02s-.49-.04-.69-.06v-15.1h-15.27v15.1c-.2.03-.43.05-.69.06s-.52.02-.78.02c-.29,0-.57,0-.84-.02-.27-.01-.5-.04-.67-.06v-31.01Z"/>
        </g>
        <g>
          <path class="cls-3" d="m238.25,199.12h34.92c0,15.77,15.77,18.4,23.66,18.77,6.57,0,15.96-1.5,15.96-9.39,0-14.64-72.09-8.45-72.09-56.32,0-27.79,26.28-40.36,44.68-40.36,15.77,0,31.73,5.07,39.24,19.15l1.88-15.77h32.29v47.12h-33.98c0-13.89-10.89-21.78-24.03-21.78-5.44,0-12.95,3.38-12.95,9.95,0,19.34,74.35,14.83,74.35,58.95,0,29.29-27.41,39.8-49.75,39.8-18.96,0-32.1-8.82-39.24-17.27l-2.07,14.46h-32.86v-47.31Z"/>
          <path class="cls-3" d="m371.55,246.43v-24.59h7.88v-44.87h-7.88v-24.41h39.99l4.32,11.64c6.38-8.82,15.02-15.02,26.85-15.02,29.1,0,33.98,21.59,33.98,41.3v31.35h8.82v24.59h-47.31v-51.25c0-6.38.56-17.46-10.51-17.46-9.57,0-11.83,9.39-11.83,17.46v26.66h13.52v24.59h-57.83Z"/>
          <path class="cls-3" d="m495.08,160.44c7.51-4.51,23.66-13.33,40.93-13.33,22.53,0,50.88,8.45,50.88,38.67v36.61h11.26v24.03h-40.18l-4.51-8.45c-6.95,9.58-18.59,12.02-25.35,12.02-17.84,0-36.99-9.58-36.99-31.35s17.83-34.54,39.05-34.54c11.08,0,17.65,5.44,18.59,6.57v-6.57c0-8.45-7.7-10.51-17.84-10.51-11.08,0-20.84,4.69-27.97,8.64l-7.88-21.78Zm53.7,51.82c-.56-.94-3.19-5.44-11.08-5.44s-10.89,4.13-10.89,9.95c0,5.26,4.32,8.82,9.95,8.82s10.33-3.38,12.02-6.2v-7.13Z"/>
          <path class="cls-3" d="m613.55,260.13v-82.61h-7.89v-24.97h42.99l3.19,6.57c3.57-2.63,11.45-8.07,22.72-8.07,29.29,0,44.31,22.53,44.31,49.19,0,29.85-18.59,48.25-42.81,48.25-15.58,0-23.09-6.2-24.41-7.32v18.96h10.14v24.59h-56.14v-24.59h7.89Zm51.44-82.61c-7.32,0-14.08,9.2-13.33,24.03,0,12.77,6.38,22.53,13.52,22.53,7.89,0,13.33-9.2,13.33-23.47,0-11.26-5.26-23.09-13.52-23.09Z"/>
          <path class="cls-3" d="m747.41,229.42c13.33,0,22.34,9.2,22.34,19.9s-8.64,19.34-22.34,19.34c-12.2,0-21.4-9.57-21.4-19.34s7.89-19.9,21.4-19.9Zm-20.65-92.18h44.87v35.67l-9.95,47.31h-24.78l-10.14-47.31v-35.67Z"/>
        </g>
        <g>
          <path class="cls-3" d="m358.07,77.57c0-40.55,27.04-68.53,65.9-68.53,46,0,67.4,27.6,67.4,69.84s-23.66,68.34-66.09,68.34c-39.24,0-67.21-22.72-67.21-69.65Zm86.36,1.31c0-22.72-6.2-40.93-20.65-40.93-11.45-.19-19.34,16.33-19.34,39.61,0,24.59,8.82,40.18,20.84,40.18s19.15-15.58,19.15-38.86Z"/>
          <path class="cls-3" d="m489.49,143.84v-24.59h7.89V27.44h-7.89V3.04h45.43v58.58c2.07-3.38,15.77-15.02,29.48-15.02,29.1,0,32.86,21.59,32.86,41.3v31.35h8.82v24.59h-48.25v-51.07c0-6.38,0-17.46-11.08-17.46-9.57,0-11.83,9.39-11.83,17.46v26.47h13.52v24.59h-58.95Z"/>
          <path class="cls-3" d="m604.2,143.84v-24.59h7.89V27.44h-7.89V3.04h45.43v58.58c2.07-3.38,15.77-15.02,29.48-15.02,29.1,0,32.86,21.59,32.86,41.3v31.35h8.82v24.59h-48.25v-51.07c0-6.38,0-17.46-11.08-17.46-9.57,0-11.83,9.39-11.83,17.46v26.47h13.52v24.59h-58.95Z"/>
        </g>
      </g>
      <g id="bubble">
        <path class="cls-1" d="m182.48,269.83c-20.47-6.69-34.34-16.81-42.73-24.65-11.08,3.14-22.77,4.73-34.78,4.73-.54,0-1.08,0-1.62,0-22.95-.28-45.31-6.63-62.97-17.88-17.63-11.23-29.87-26.84-34.47-43.95-1.43-5.37-2.12-10.88-2.06-16.39.32-25.05,16.57-48.39,43.45-62.44,16.63-8.71,36.13-13.32,56.39-13.32.54,0,1.07,0,1.61,0,26.65.33,51.64,8.52,70.37,23.08,19.06,14.8,29.4,34.4,29.12,55.17-.25,20.43-10.75,39.41-29.63,53.67,1.84,15.47,5.88,23.85,9.47,31.29.9,1.87,1.76,3.64,2.56,5.48l3.44,7.88-8.17-2.67Z"/>
        <path class="cls-6" d="m103.7,99.78c.52,0,1.04,0,1.56,0,53.36.66,96.22,33.94,95.69,74.34-.25,20.5-11.69,38.88-29.85,51.94,2.18,21.56,8.43,30.61,12.57,40.09-20.85-6.81-34.56-17.16-42.87-25.31-11.07,3.36-23.17,5.2-35.83,5.2-.52,0-1.04,0-1.57,0-46.4-.56-84.85-25.84-93.76-58.97-1.33-4.97-1.99-10.09-1.93-15.34.32-24.59,16.62-46.13,41.39-59.06,15.52-8.13,34.32-12.88,54.6-12.88m.01-7.71h-.01c-20.88,0-41,4.76-58.18,13.76C17.37,120.54.35,145.14,0,171.63c-.07,5.87.67,11.73,2.19,17.43,4.86,18.05,17.68,34.46,36.13,46.21,18.25,11.63,41.33,18.19,64.99,18.48.56,0,1.11,0,1.66,0,11.62,0,22.95-1.45,33.75-4.3,8.81,7.89,22.69,17.54,42.57,24.04l16.34,5.34-6.88-15.75c-.83-1.9-1.7-3.7-2.62-5.61-3.44-7.14-6.99-14.49-8.84-27.92,18.73-14.83,29.12-34.33,29.38-55.33.29-22.01-10.58-42.7-30.61-58.26-19.39-15.07-45.21-23.55-72.69-23.89-.55,0-1.1,0-1.65,0h0Z"/>
      </g>
      <path id="shade" class="cls-5" d="m169.68,162.54s-27.04,23.6-72.43,56.6L9.64,187.07c-1.33-4.97-1.99-10.09-1.93-15.34.32-24.59,16.62-46.13,41.39-59.06l120.58,49.88Z"/>
      <path id="side" class="cls-3" d="m198.52,7.82s.05,0,.08,0c0,0,.02,0,.03,0,.07,0,.13.01.19.01C171.14,5.23,143.46,2.63,115.78.03c-.02,0-.03,0-.05,0-.01,0-.03,0-.04,0-.02,0-.03,0-.05,0h-.01s-.02,0-.03,0c0,0-.02,0-.03,0-.04,0-.07,0-.11,0-.04,0-.09,0-.13,0-.03,0-.07,0-.1,0h-.2l-24.37,2.22-6.76.62-46.83,4.27c-.1,0-.21.02-.32.03-.11.01-.21.03-.32.04-.1.01-.21.03-.31.05-.1.02-.21.04-.31.05-.12.02-.24.05-.36.08-.03,0-.08,0-.11.02-.04,0-.08.02-.12.03-.12.03-.25.05-.36.08-.32.08-.63.18-.94.28-.06.02-.12.05-.19.07-.03,0-.06.02-.09.02-.05.02-.09.04-.13.06-.17.06-.34.12-.52.19-.3.12-.6.26-.9.4-.02,0-.04.02-.06.03,0,0-.01,0-.02.01-.01,0-.02.01-.03.02-.1.05-.21.1-.3.15-.14.07-.27.15-.41.22-.14.08-.27.16-.41.24-.13.08-.27.17-.4.25-.04.02-.07.05-.1.07-.04.02-.07.05-.11.07-.04.02-.07.05-.11.07-.03.02-.07.05-.1.07-.15.11-.31.22-.46.33-.15.11-.3.23-.45.35-.04.03-.08.06-.11.09,0,0-.02.01-.03.02,0,0-.02.02-.03.02-.09.08-.19.15-.28.23-.14.13-.29.25-.43.38-.14.12-.27.25-.4.37-.07.07-.14.14-.21.21-.01.01-.02.02-.03.03,0,.01-.02.02-.03.03-.04.04-.08.07-.11.11-.13.13-.26.26-.38.4-.12.13-.25.27-.37.41-.12.14-.24.28-.36.42,0,0,0,0,0,.01,0,0,0,0,0,0,0,0,0,.01-.01.01-.11.13-.21.27-.32.4-.11.14-.23.29-.34.44-.11.15-.22.3-.33.45-.01.02-.02.04-.04.06-.01.02-.03.04-.04.06-.02.02-.03.04-.04.06-.01.02-.02.04-.04.06-.1.15-.2.3-.31.46-.1.15-.19.31-.29.47-.09.16-.19.32-.28.48-.04.07-.08.15-.12.22,0,.02-.02.03-.03.05,0,.02-.02.04-.03.06-.03.05-.06.1-.09.16-.11.2-.21.41-.32.61-.1.21-.21.42-.3.63-.04.09-.08.18-.12.27-.01.02-.03.04-.03.07,0,.02-.02.04-.03.07-.03.08-.07.15-.1.23-.09.21-.18.43-.26.65-.09.24-.18.47-.27.71-.02.06-.04.13-.07.2,0,.01,0,.02-.01.03,0,.01,0,.03-.01.04-.05.15-.1.3-.15.45-.08.24-.15.49-.22.73-.07.25-.14.49-.2.74,0,.04-.02.08-.03.12,0,.04-.02.08-.03.12,0,.04-.02.08-.03.12,0,.04-.02.08-.02.12-.07.3-.11.61-.17.91-.04.22-.1.43-.13.64,0,.05,0,.1-.02.16,0,.07-.03.13-.04.2-.05.35-.08.71-.11,1.06-.02.22-.06.43-.07.65,0,.04,0,.08,0,.12,0,.04,0,.08-.01.12-.02.4-.02.8-.02,1.2,0,.22-.02.44-.02.66,0,.02,0,.04,0,.06,0,.02,0,.04,0,.06.02.67.06,1.33.14,2l19.3,99.82,4.29,35.06c.03.2.07.39.12.56.05.18.11.35.18.51.07.16.15.31.24.45.09.14.19.27.31.39,15.82,17.01,31.63,34.01,47.45,51.02-.12-.14-.24-.29-.34-.45-.1-.17-.19-.34-.26-.53-.07-.19-.14-.39-.18-.61-.04-.22-.08-.45-.1-.69l-2.6-44.14-9.47-119.84c-.06-.95-.06-1.89-.04-2.83,0-.38.05-.75.07-1.12.03-.58.07-1.17.13-1.75.04-.36.1-.71.15-1.07.08-.59.16-1.18.27-1.76.07-.39.17-.78.26-1.17.14-.63.28-1.27.45-1.88.25-.91.54-1.79.85-2.66.02-.05.04-.11.06-.16.32-.87.67-1.72,1.04-2.55.01-.02.02-.05.03-.07.38-.84.8-1.67,1.24-2.47,0-.01.01-.02.02-.03.45-.81.93-1.6,1.44-2.35.5-.75,1.03-1.48,1.59-2.17,0,0,0,0,0,0,.55-.69,1.13-1.34,1.72-1.96.02-.02.03-.03.05-.05.57-.6,1.17-1.16,1.78-1.69.04-.04.08-.07.12-.11.63-.54,1.27-1.04,1.93-1.5.67-.46,1.35-.88,2.05-1.26.01,0,.02-.01.03-.02.64-.35,1.3-.65,1.97-.92.09-.04.17-.07.26-.11.63-.25,1.27-.45,1.92-.63.12-.03.24-.06.36-.09.68-.17,1.37-.31,2.07-.39l58.52-6.9,8.21-.97,29.09-3.42c.08,0,.16,0,.23,0,.07,0,.14,0,.21,0h.03s.08,0,.11,0Z"/>
      <g id="Front">
        <g id="Front-2" data-name="Front">
          <path class="cls-2" d="m204.72,18.8c0,.52,0,1.05-.02,1.59-.02.54-.06,1.09-.11,1.66-.05.56-.11,1.13-.19,1.72-.09.58-.18,1.17-.29,1.77-13.02,45.37-24.29,90.92-34.41,136.98-.06.27-.13.54-.21.82-.08.27-.17.55-.27.84-.1.28-.21.57-.33.85-.12.29-.25.57-.39.86-.13.28-.27.57-.42.86-.15.29-.31.58-.47.86-.16.29-.34.58-.51.86-.18.29-.36.57-.55.85-.19.28-.39.56-.59.83-.2.27-.41.55-.62.81-.21.26-.43.52-.65.78-.22.25-.44.5-.67.75-.23.24-.46.48-.7.71-.23.23-.47.45-.71.67-.24.21-.48.42-.72.62-.24.2-.49.38-.73.56l-22.51,16.18-18.49,13.28-16.03,11.52c-.35.24-.7.47-1.05.68-.35.22-.69.42-1.02.6-.34.19-.67.36-1,.52-.33.16-.65.3-.96.44-.09.04-.19.08-.28.12-.1.04-.19.08-.28.11-.09.03-.18.07-.28.1-.09.03-.18.07-.28.09-.24.08-.48.15-.72.21-.24.06-.47.11-.69.16-.23.04-.45.07-.66.1-.22.02-.43.04-.63.04-.28,0-.55,0-.81-.03-.26-.03-.5-.08-.73-.14-.23-.07-.45-.15-.65-.26-.2-.11-.39-.23-.56-.37-.17-.14-.32-.3-.45-.47-.13-.18-.25-.37-.35-.58-.1-.21-.17-.44-.24-.69-.06-.25-.1-.52-.12-.8l-2.6-44.14-9.47-119.84c-.06-.98-.07-1.96-.04-2.94.03-.98.1-1.96.21-2.93.11-.97.26-1.94.45-2.89.19-.95.41-1.9.68-2.82.26-.94.56-1.86.88-2.76.33-.9.69-1.79,1.09-2.65.39-.86.82-1.7,1.27-2.52.45-.82.94-1.61,1.45-2.37.5-.75,1.03-1.48,1.59-2.18.56-.7,1.14-1.36,1.75-1.99.6-.63,1.23-1.22,1.87-1.78.64-.55,1.31-1.07,1.98-1.54.68-.46,1.37-.89,2.07-1.27.7-.38,1.42-.71,2.14-1,.72-.29,1.46-.53,2.2-.72.74-.19,1.49-.33,2.24-.42l58.52-6.9,8.21-.97,29.09-3.42c.41-.01.78,0,1.13.05.35.05.66.12.95.22.29.1.56.22.81.37.25.15.49.32.71.52.25.22.49.47.71.75.22.28.43.58.62.91.2.33.38.68.54,1.06.16.38.32.78.45,1.2.13.41.25.85.35,1.31.1.46.18.93.26,1.43.07.49.13,1.01.17,1.53.05.53.07,1.07.08,1.63Z"/>
        </g>
      </g>
      <path class="cls-3" d="m163.12,121.84l-55.98,20.85c-2.25.84-3.74,2.97-3.74,5.34v43.64c0,4.59,5.19,7.3,9.02,4.72l48.99-32.98c1.22-.82,2.07-2.07,2.39-3.5l6.99-31.5c.98-4.43-3.39-8.17-7.67-6.57Z"/>
      <ellipse class="cls-7" cx="142.74" cy="73.54" rx="29.5" ry="20.28" transform="translate(12.21 167.05) rotate(-62.88)"/>
    </g>
  </g>
</svg>