<svg xmlns="http://www.w3.org/2000/svg" xml:space="preserve" preserveAspectRatio="xMinYMin meet" width="225" height="85" id="Layer_1" x="0" y="0" version="1.1" viewBox="0 0 681 260">
  <style>
	.st0{fill:#29398c}.st1{fill:#2b3990}
  </style>
  <path d="M219.3 228.1c.2 0 .6-.1 1-.1.4-.1.9-.1 1.5-.1s1.1-.1 1.6-.1c.6 0 1.1-.1 1.5-.1 1.5 0 2.8.1 4 .4 1.2.3 2.2.8 3.1 1.4.9.6 1.5 1.5 2 2.5s.7 2.3.7 3.7c0 1.6-.3 2.9-.8 4s-1.3 2-2.2 2.7-2 1.2-3.2 1.5-2.5.5-3.8.5h-1.5c-.4 0-.9-.1-1.4-.1v10.5c-.2 0-.4 0-.6.1s-.4 0-.7 0h-.7c-.2 0-.4 0-.6-.1l.1-26.7zm2.6 13.9c.2 0 .5 0 .7.1h2.1c.9 0 1.8-.1 2.6-.2.9-.1 1.7-.5 2.4-.9.7-.5 1.3-1.1 1.7-1.9.4-.8.7-1.9.7-3.3 0-1.1-.2-2-.5-2.7s-.8-1.3-1.4-1.8c-.6-.4-1.4-.8-2.3-1s-1.9-.3-3-.3c-.6 0-1.2 0-1.7.1-.5 0-.9.1-1.2.1V242h-.1zM246 228.1c.2 0 .4 0 .6-.1h1.4c.2 0 .4 0 .6.1v11.4h13.2v-11.4c.2 0 .4 0 .6-.1h1.4c.2 0 .5 0 .6.1v26.7c-.1 0-.3 0-.6.1h-1.4c-.2 0-.4 0-.6-.1v-13h-13.2v13c-.2 0-.4 0-.6.1s-.4 0-.7 0h-.7c-.2 0-.4 0-.6-.1v-26.7zM287.6 255.3c-1.9 0-3.5-.3-4.9-1s-2.5-1.6-3.4-2.9c-.9-1.2-1.6-2.7-2-4.4-.5-1.7-.7-3.5-.7-5.6 0-2 .2-3.9.7-5.5.5-1.7 1.1-3.1 2-4.4.9-1.2 2-2.2 3.4-2.9s3-1 4.9-1 3.5.3 4.9 1 2.5 1.6 3.4 2.9c.9 1.2 1.6 2.7 2 4.4.5 1.7.7 3.5.7 5.5s-.2 3.9-.7 5.6c-.5 1.7-1.1 3.2-2 4.4s-2.1 2.2-3.4 2.9c-1.4.6-3 1-4.9 1zm0-2.4c1.4 0 2.7-.3 3.7-.8 1-.6 1.9-1.3 2.6-2.4.7-1 1.2-2.2 1.5-3.6.3-1.4.5-3 .5-4.6s-.2-3.2-.5-4.6c-.3-1.4-.8-2.6-1.5-3.6s-1.6-1.8-2.6-2.3c-1-.6-2.3-.8-3.7-.8-1.4 0-2.7.3-3.7.8-1.1.6-1.9 1.3-2.6 2.3s-1.2 2.2-1.5 3.6c-.3 1.4-.5 3-.5 4.6s.2 3.2.5 4.6c.3 1.4.8 2.6 1.5 3.6s1.5 1.8 2.6 2.4c1 .6 2.3.8 3.7.8zM313.6 230.4h-7.2c0-.1 0-.3-.1-.5v-1.2c0-.2 0-.4.1-.6h16.9c0 .1 0 .3.1.5v1.2c0 .2 0 .4-.1.6h-7.2v24.4c-.2 0-.4 0-.6.1h-1.4c-.2 0-.4 0-.6-.1v-24.4h.1zM342.3 255.3c-1.9 0-3.5-.3-4.9-1s-2.5-1.6-3.4-2.9c-.9-1.2-1.6-2.7-2-4.4-.5-1.7-.7-3.5-.7-5.6 0-2 .2-3.9.7-5.5.5-1.7 1.1-3.1 2-4.4.9-1.2 2-2.2 3.4-2.9s3-1 4.9-1 3.5.3 4.9 1 2.5 1.6 3.4 2.9c.9 1.2 1.6 2.7 2 4.4.5 1.7.7 3.5.7 5.5s-.2 3.9-.7 5.6c-.5 1.7-1.1 3.2-2 4.4s-2 2.2-3.4 2.9c-1.5.6-3.1 1-4.9 1zm0-2.4c1.4 0 2.7-.3 3.7-.8 1-.6 1.9-1.3 2.6-2.4.7-1 1.2-2.2 1.5-3.6.3-1.4.5-3 .5-4.6s-.2-3.2-.5-4.6c-.3-1.4-.8-2.6-1.5-3.6s-1.6-1.8-2.6-2.3c-1-.6-2.3-.8-3.7-.8s-2.7.3-3.7.8c-1.1.6-1.9 1.3-2.6 2.3s-1.2 2.2-1.5 3.6c-.3 1.4-.5 3-.5 4.6s.2 3.2.5 4.6c.3 1.4.8 2.6 1.5 3.6s1.5 1.8 2.6 2.4c1 .6 2.2.8 3.7.8zM381 228.1c.2 0 .6-.1 1.1-.1s.9-.1 1.5-.1c.5 0 1-.1 1.6-.1h1.4c2.9 0 5.2.6 6.7 1.7s2.3 2.9 2.3 5.3c0 .8-.1 1.5-.4 2.1-.2.6-.6 1.2-.9 1.7s-.9.9-1.4 1.3c-.5.3-1.1.6-1.7.8.8.1 1.5.3 2.2.6s1.4.7 1.9 1.3c.6.6 1 1.3 1.3 2.1s.5 1.8.5 3c0 1.3-.3 2.5-.8 3.5s-1.3 1.8-2.2 2.4c-1 .6-2.1 1.1-3.4 1.4-1.3.3-2.7.5-4.3.5h-1.3c-.5 0-1-.1-1.5-.1s-1-.1-1.5-.1c-.5-.1-.9-.1-1.2-.2l.1-27zm6.1 11.4c2 0 3.5-.4 4.4-1.3.9-.9 1.4-2.1 1.4-3.5 0-1.3-.5-2.5-1.5-3.4s-2.5-1.4-4.6-1.4c-.6 0-1.3 0-1.8.1s-1 .1-1.4.1v9.3l3.5.1zm-3.6 13.2c.3 0 .8.1 1.4.1s1.2.1 1.8.1c1 0 1.9-.1 2.8-.3s1.8-.5 2.5-.9 1.3-1 1.7-1.7c.4-.7.6-1.6.6-2.6s-.2-1.9-.6-2.6c-.4-.7-.9-1.3-1.5-1.7s-1.4-.8-2.3-1-1.8-.3-2.8-.3h-3.8v10.9h.2zM418.6 255.3c-1.9 0-3.5-.3-4.9-1s-2.5-1.6-3.4-2.9c-.9-1.2-1.6-2.7-2-4.4-.5-1.7-.7-3.5-.7-5.6 0-2 .2-3.9.7-5.5.5-1.7 1.1-3.1 2-4.4.9-1.2 2-2.2 3.4-2.9s3-1 4.9-1 3.5.3 4.9 1 2.5 1.6 3.4 2.9c.9 1.2 1.6 2.7 2 4.4.5 1.7.7 3.5.7 5.5s-.2 3.9-.7 5.6c-.5 1.7-1.1 3.2-2 4.4s-2 2.2-3.4 2.9c-1.4.6-3.1 1-4.9 1zm0-2.4c1.4 0 2.7-.3 3.7-.8 1-.6 1.9-1.3 2.6-2.4.7-1 1.2-2.2 1.5-3.6.3-1.4.5-3 .5-4.6s-.2-3.2-.5-4.6c-.3-1.4-.8-2.6-1.5-3.6s-1.6-1.8-2.6-2.3c-1-.6-2.3-.8-3.7-.8s-2.7.3-3.7.8c-1.1.6-1.9 1.3-2.6 2.3s-1.2 2.2-1.5 3.6c-.3 1.4-.5 3-.5 4.6s.2 3.2.5 4.6c.3 1.4.8 2.6 1.5 3.6s1.5 1.8 2.6 2.4c1 .6 2.2.8 3.7.8zM451.5 255.3c-1.9 0-3.5-.3-4.9-1s-2.5-1.6-3.4-2.9c-.9-1.2-1.6-2.7-2-4.4-.5-1.7-.7-3.5-.7-5.6 0-2 .2-3.9.7-5.5.5-1.7 1.1-3.1 2-4.4.9-1.2 2-2.2 3.4-2.9s3-1 4.9-1 3.5.3 4.9 1 2.5 1.6 3.4 2.9c.9 1.2 1.6 2.7 2 4.4.5 1.7.7 3.5.7 5.5s-.2 3.9-.7 5.6c-.5 1.7-1.1 3.2-2 4.4s-2 2.2-3.4 2.9c-1.4.6-3 1-4.9 1zm0-2.4c1.4 0 2.7-.3 3.7-.8 1-.6 1.9-1.3 2.6-2.4.7-1 1.2-2.2 1.5-3.6.3-1.4.5-3 .5-4.6s-.2-3.2-.5-4.6c-.3-1.4-.8-2.6-1.5-3.6s-1.6-1.8-2.6-2.3c-1-.6-2.3-.8-3.7-.8s-2.7.3-3.7.8c-1.1.6-1.9 1.3-2.6 2.3s-1.2 2.2-1.5 3.6c-.3 1.4-.5 3-.5 4.6s.2 3.2.5 4.6c.3 1.4.8 2.6 1.5 3.6s1.5 1.8 2.6 2.4c1 .6 2.3.8 3.7.8zM477.6 230.4h-7.2c0-.1 0-.3-.1-.5v-1.2c0-.2 0-.4.1-.6h16.9c0 .1 0 .3.1.5s0 .4 0 .6v.6c0 .2 0 .4-.1.6h-7.2v24.4c-.2 0-.4 0-.6.1s-.4 0-.7 0h-.7c-.2 0-.4 0-.6-.1v-24.4h.1zM497.9 228.1c.2 0 .4 0 .6-.1h1.4c.2 0 .4 0 .6.1v11.4h13.2v-11.4c.2 0 .4 0 .6-.1h1.4c.2 0 .5 0 .6.1v26.7c-.1 0-.3 0-.6.1s-.5 0-.7 0h-.7c-.3 0-.4 0-.6-.1v-13h-13.2v13c-.2 0-.4 0-.6.1h-1.4c-.2 0-.4 0-.6-.1v-26.7z" class="st0" shape-rendering="geometricPrecision"/>
  <path d="M213.2 179.9h30.1c0 13.6 13.6 15.8 20.4 16.2 5.7 0 13.7-1.3 13.7-8.1 0-12.6-62.1-7.3-62.1-48.5 0-23.9 22.6-34.8 38.5-34.8 13.6 0 27.3 4.4 33.8 16.5l1.6-13.6H317v40.6h-29.3c0-12-9.4-18.8-20.7-18.8-4.7 0-11.2 2.9-11.2 8.6 0 16.7 64 12.8 64 50.8 0 25.2-23.6 34.3-42.9 34.3-16.3 0-27.7-7.6-33.8-14.9l-1.8 12.5H213v-40.8h.2zM328.1 220.7v-21.2h6.8v-38.7h-6.8v-21h34.4l3.7 10c5.5-7.6 12.9-12.9 23.1-12.9 25.1 0 29.3 18.6 29.3 35.6v27h7.6v21.2h-40.8v-44.2c0-5.5.5-15-9.1-15-8.2 0-10.2 8.1-10.2 15v23h11.6v21.2h-49.6zM434.5 146.6c6.5-3.9 20.4-11.5 35.3-11.5 19.4 0 43.8 7.3 43.8 33.3V200h9.7v20.7h-34.6l-3.9-7.3c-6 8.2-16 10.4-21.8 10.4-15.4 0-31.9-8.2-31.9-27 0-18.3 15.4-29.8 33.6-29.8 9.5 0 15.2 4.7 16 5.7V167c0-7.3-6.6-9.1-15.4-9.1-9.5 0-18 4-24.1 7.4l-6.7-18.7zm46.2 44.7c-.5-.8-2.7-4.7-9.5-4.7-6.5 0-9.4 3.6-9.4 8.6 0 4.5 3.7 7.6 8.6 7.6s8.9-2.9 10.4-5.3v-6.2h-.1zM536.5 232.5v-71.2h-6.8v-21.5h37l2.7 5.7c3.1-2.3 9.9-7 19.6-7 25.2 0 38.2 19.4 38.2 42.4 0 25.7-16 41.6-36.9 41.6-13.4 0-19.9-5.3-21-6.3v16.3h8.7v21.2h-48.4v-21.2h6.9zm44.3-71.2c-6.3 0-12.1 7.9-11.5 20.7 0 11 5.5 19.4 11.6 19.4 6.8 0 11.5-7.9 11.5-20.2.1-9.7-4.4-19.9-11.6-19.9zM651.8 206c11.5 0 19.2 7.9 19.2 17.1 0 9.1-7.4 16.7-19.2 16.7-10.5 0-18.4-8.2-18.4-16.7 0-8 6.8-17.1 18.4-17.1zM634 126.6h38.7v30.7l-8.6 40.8h-21.3l-8.7-40.8v-30.7h-.1zM316.4 75.2c0-34.9 23.3-59 56.8-59 39.6 0 58.1 23.8 58.1 60.2 0 36.6-20.4 58.9-56.9 58.9-33.9-.1-58-19.6-58-60.1zm74.4 1.2c0-19.6-5.3-35.3-17.8-35.3-9.9-.2-16.7 14.1-16.7 34.1 0 21.2 7.6 34.6 18 34.6 10.2 0 16.5-13.4 16.5-33.4z" class="st1" shape-rendering="geometricPrecision"/>
  <path d="M429.7 132.3v-21.2h6.8V32h-6.8V11h39.1v50.5c1.8-2.9 13.6-12.9 25.4-12.9 25.1 0 28.3 18.6 28.3 35.6v27h7.6v21.2h-41.6v-44c0-5.5 0-15-9.5-15-8.2 0-10.2 8.1-10.2 15v22.8h11.6v21.2l-50.7-.1z" class="st1" shape-rendering="geometricPrecision"/>
  <path d="M528.5 132.3v-21.2h6.8V32h-6.8V11h39.1v50.5c1.8-2.9 13.6-12.9 25.4-12.9 25.1 0 28.3 18.6 28.3 35.6v27h7.6v21.2h-41.6v-44c0-5.5 0-15-9.5-15-8.2 0-10.2 8.1-10.2 15v22.8h11.6v21.2l-50.7-.1z" class="st1" shape-rendering="geometricPrecision"/>
  <g id="bubble">
	<path fill="#27aae1" d="M165 241.4c-17.5-5.7-29.5-14.4-36.8-21.1-9.5 2.7-19.5 4-29.8 4H97c-19.9-.2-39.2-5.7-54.5-15.5-15.3-9.7-25.9-23.3-29.9-38.2-1.2-4.7-1.8-9.5-1.8-14.3.3-21.8 14.4-42.1 37.7-54.3 14.4-7.5 31.3-11.5 48.8-11.5h1.4c23.1.3 44.7 7.4 60.9 20 16.6 12.9 25.5 29.9 25.3 48-.2 17.7-9.2 34.1-25.5 46.5 1.6 13 5 20.2 8.1 26.5.8 1.6 1.5 3.1 2.2 4.7l3.4 7.9-8.1-2.7z" shape-rendering="geometricPrecision"/>
	<path fill="#2e3192" d="M97.3 94.4h1.3c46 .6 82.9 29.2 82.4 64-.2 17.7-10.1 33.5-25.7 44.7 1.9 18.6 7.3 26.4 10.8 34.5-18-5.9-29.8-14.8-36.9-21.8-9.5 2.9-20 4.5-30.9 4.5h-1.4c-40-.5-73.1-22.3-80.8-50.8-1.1-4.3-1.7-8.7-1.7-13.2.3-21.2 14.3-39.7 35.7-50.9 13.6-6.9 29.7-11 47.2-11m0-7.7c-18.2 0-35.7 4.1-50.6 12C22.1 111.5 7.2 133 6.9 156.2c-.1 5.2.6 10.3 1.9 15.3 4.3 15.8 15.5 30.2 31.6 40.4 15.9 10.1 36 15.8 56.5 16.1h1.4c9.9 0 19.6-1.2 28.8-3.6 7.7 6.8 19.6 15 36.6 20.5l16.3 5.3-6.9-15.8c-.7-1.7-1.5-3.3-2.3-4.9-2.9-6-5.8-12.1-7.4-23.1 16.1-12.9 25-29.9 25.2-48.1.3-19.3-9.3-37.4-26.8-51-16.7-13-39.1-20.3-63-20.6h-1.5z" shape-rendering="geometricPrecision"/>
  </g>
  <path id="shade" fill="#2c6393" d="M154.2 148.4s-23.3 20.3-62.4 48.8l-75.5-27.6c-1.1-4.3-1.7-8.7-1.7-13.2.3-21.2 14.3-39.7 35.7-50.9l103.9 42.9z" shape-rendering="geometricPrecision"/>
  <path id="side" d="M179 15.1s.1 0 0 0c.1 0 .1 0 0 0h.3c-23.8-2.2-47.7-4.5-71.5-6.7h-.4l-21 1.9-5.8.5-40.3 3.7h-1.2c-.1 0-.2 0-.3.1h-.2c-.1 0-.2 0-.3.1-.3.1-.5.2-.8.2-.1 0-.1 0-.2.1h-.2c-.1.1-.3.1-.4.2-.3.1-.5.2-.8.3h-.1c-.1 0-.2.1-.3.1-.4.4-.5.4-.6.5s-.2.1-.4.2c-.1.1-.2.1-.3.2 0 0-.1 0-.1.1 0 0-.1 0-.1.1 0 0-.1 0-.1.1 0 0-.1 0-.1.1-.1.1-.3.2-.4.3-.1.1-.3.2-.4.3l-.1.1c-.1.1-.2.1-.2.2-.1.1-.2.2-.4.3l-.3.3-.2.2-.1.1-.3.3c-.1.1-.2.2-.3.4-.1.1-.2.2-.3.4l-.3.3c-.1.1-.2.3-.3.4-.1.1-.2.3-.3.4-.1.1-.2.3-.3.4-.1.1-.2.3-.3.4-.3.3-.3.4-.4.6 0 .1-.1.1-.1.2l-.1.1c-.1.2-.2.4-.3.5-.1.2-.2.4-.3.5 0 .1-.1.2-.1.2v.2c0 .1-.1.1-.1.2-.1.2-.2.4-.2.6-.1.2-.2.4-.2.6 0 .1 0 .1-.1.2 0 .1-.1.3-.1.4-.1.2-.1.4-.2.6s-.1.4-.2.6v.4c-.1.3-.1.5-.1.8 0 .2-.1.4-.1.6V29.3c0 .3-.1.6-.1.9 0 .2-.1.4-.1.6v2c0 .6.1 1.1.1 1.7l16.6 86 3.7 30.2c0 .2.1.3.1.5s.1.3.2.4c.1.1.1.3.2.4l.3.3c13.3 14.7 27 29.4 40.6 44-.1-.1-.2-.2-.3-.4-.1-.1-.2-.3-.2-.5-.1-.2-.1-.3-.2-.5 0-.2-.1-.4-.1-.6l-2.2-38-8.2-103.2c0-.8-.1-1.6 0-2.4 0-.3 0-.6.1-1 0-.5.1-1 .1-1.5 0-.3.1-.6.1-.9.1-.5.1-1 .2-1.5.1-.3.1-.7.2-1 .1-.5.2-1.1.4-1.6.2-.8.5-1.5.7-2.3 0 0 0-.1.1-.1.3-.7.6-1.5.9-2.2v-.1c.3-.7.7-1.4 1.1-2.1.4-.7.8-1.4 1.2-2 .4-.6.9-1.3 1.4-1.9.5-.6 1-1.2 1.5-1.7l1.5-1.5.1-.1c.5-.5 1.1-.9 1.7-1.3s1.2-.8 1.8-1.1c.6-.3 1.1-.6 1.7-.8.1 0 .1-.1.2-.1.5-.2 1.1-.4 1.7-.5.1 0 .2-.1.3-.1.6-.1 1.2-.3 1.8-.3l50.4-5.9 7.1-.8 25.1-2.9h.4c0-.3 0-.3.1-.3-.1 0 0 0 0 0z" class="st1" shape-rendering="geometricPrecision"/>
  <g id="Front_1_">
	<path id="Front" fill="#1c75bc" d="M184.3 24.6V26c0 .5-.1.9-.1 1.4s-.1 1-.2 1.5l-.3 1.5c-11.2 39.1-20.9 78.3-29.6 118-.1.2-.1.5-.2.7-.1.2-.1.5-.2.7-.1.2-.2.5-.3.7s-.2.5-.3.7-.2.5-.4.7c-.1.2-.3.5-.4.7-.1.2-.3.5-.4.7-.2.2-.3.5-.5.7s-.3.5-.5.7-.4.5-.5.7c-.2.2-.4.5-.6.7l-.6.6-.6.6-.6.6c-.2.2-.4.4-.6.5-.2.2-.4.3-.6.5l-19.4 13.9-15.9 11.4-13.8 9.9-.9.6c-.3.2-.6.4-.9.5-.3.2-.6.3-.9.4-.3.1-.6.3-.8.4-.1 0-.2.1-.2.1-.1 0-.2.1-.2.1-.1 0-.2.1-.2.1-.1 0-.2.1-.2.1-.2.1-.4.1-.6.2-.2.1-.4.1-.6.1s-.4.1-.6.1h-1.2c-.2 0-.4-.1-.6-.1-.2-.1-.4-.1-.6-.2-.2-.1-.3-.2-.5-.3l-.4-.4c-.1-.2-.2-.3-.3-.5-.1-.2-.2-.4-.2-.6-.1-.2-.1-.4-.1-.7l-2.2-38-8.4-102.9c0-.8-.1-1.7 0-2.5 0-.8.1-1.7.2-2.5s.2-1.7.4-2.5l.6-2.4c.2-.8.5-1.6.8-2.4.3-.8.6-1.5.9-2.3.3-.7.7-1.5 1.1-2.2s.8-1.4 1.2-2c.4-.6.9-1.3 1.4-1.9.5-.6 1-1.2 1.5-1.7s1.1-1.1 1.6-1.5c.6-.5 1.1-.9 1.7-1.3s1.2-.8 1.8-1.1l1.8-.9c.6-.2 1.3-.5 1.9-.6.6-.2 1.3-.3 1.9-.4l50.4-5.9 7.1-.8 25.1-2.9h1c.3 0 .6.1.8.2.3.1.5.2.7.3s.4.3.6.4l.6.6c.2.2.4.5.5.8.2.3.3.6.5.9.1.3.3.7.4 1 .1.4.2.7.3 1.1s.2.8.2 1.2c.1.4.1.9.1 1.3.1.6.1 1 .1 1.5z" shape-rendering="geometricPrecision"/>
  </g>
  <path d="m148.5 113.4-48.2 18c-1.9.7-3.2 2.6-3.2 4.6v37.6c0 4 4.5 6.3 7.8 4.1l42.2-28.4c1.1-.7 1.8-1.8 2.1-3l6-27.1c.8-4-3-7.2-6.7-5.8z" class="st1" shape-rendering="geometricPrecision"/>
  <path fill="#fff" d="M149.1 73.1c-3.7 13.2-14.9 23.3-24.9 22.6s-15.1-12.1-11.4-25.3 14.9-23.3 24.9-22.6c10.1.7 15.2 12.1 11.4 25.3z"/>
  <path fill="none" d="M645 5h31v28h-31z" shape-rendering="geometricPrecision"/>
  <path d="M636 39.5c9.1 0 14.2 7.7 14.2 13.8 0 7.6-4.9 13.6-14.2 13.6-8.2 0-14-6.7-14-13.6 0-6.1 4.9-13.8 14-13.8zm0 24c7 0 10.6-4.4 10.6-10.1 0-4.6-3.8-10.3-10.6-10.3s-10.4 5.8-10.4 10.3c-.1 5.1 4.3 10.1 10.4 10.1zm.3-17c4.7 0 5.6 1.9 5.6 4.2 0 1.6-1.3 2.6-3 2.9 1.4.4 2.6 1.4 2.6 3 0 .8.1 1.4.5 1.4s.5-.2.5-.6v-.7h1.4v1.2c0 1.7-.7 3.2-3 3.2-2.6 0-3.8-1.4-3.8-3.8 0-1.9-.4-2.4-2.3-2.4v3.2h1.3v2.6h-6.5v-2.6h1.2v-8.9h-1.2v-2.8c.1.1 6.7.1 6.7.1zm-1.3 6.1h1c1.3 0 2-.6 2-1.7 0-1.2-.7-1.8-1.9-1.8h-1v3.5h-.1z" class="st1" shape-rendering="geometricPrecision"/>
</svg>
