<?xml version="1.0" encoding="UTF-8"?>
<svg id="Layer_2" data-name="Layer 2" xmlns="http://www.w3.org/2000/svg" viewBox="0 0 1258.36 534.94">
  <defs>
    <style>
      .cls-1 {
        fill: #0d3183;
      }
    </style>
  </defs>
  <g id="Layer_1-2" data-name="Layer 1">
    <g>
      <g>
        <path class="cls-1" d="M121.89,200.62c-50.29,0-100.31-33.53-100.31-100.31S71.87,0,121.89,0s100.31,33.25,100.31,100.31-50.29,100.31-100.31,100.31ZM121.89,198.7c37.65,0,75.3-32.98,75.3-98.39S159.54,1.92,121.89,1.92,46.59,34.63,46.59,100.31s37.65,98.39,75.3,98.39Z"/>
        <path class="cls-1" d="M298.05,196.78h-63.21c12.37-1.65,20.61-4.12,20.61-26.66V31.05c0-22.54-8.25-25.01-20.61-26.66h63.21c-12.09,1.65-20.61,4.12-20.61,26.66v63.21h83.82V31.05c0-22.54-8.24-25.01-20.61-26.66h63.21c-12.09,1.65-20.34,4.12-20.34,26.66v139.06c0,22.54,8.24,25.01,20.34,26.66h-63.21c12.37-1.65,20.61-4.12,20.61-26.66v-73.38h-83.82v73.38c0,22.54,8.52,25.01,20.61,26.66Z"/>
        <path class="cls-1" d="M483.82,196.78h-63.21c12.37-1.65,20.61-4.12,20.61-26.66V31.05c0-22.54-8.25-25.01-20.61-26.66h63.21c-12.09,1.65-20.61,4.12-20.61,26.66v63.21h83.82V31.05c0-22.54-8.24-25.01-20.61-26.66h63.21c-12.09,1.65-20.34,4.12-20.34,26.66v139.06c0,22.54,8.24,25.01,20.34,26.66h-63.21c12.37-1.65,20.61-4.12,20.61-26.66v-73.38h-83.82v73.38c0,22.54,8.52,25.01,20.61,26.66Z"/>
        <path class="cls-1" d="M735.84,200.62c-23.63,0-48.37-8.25-64.58-25.56l10.17-42.32c-2.75,44.52,26.11,64.86,53.04,64.86,22.81,0,44.25-14.57,44.25-42.05,0-56.06-97.01-54.14-97.01-110.75,0-31.05,26.38-43.97,53.59-43.97,17.86,0,36.28,5.77,47.27,15.39l-3.85,34.63c0-32.98-20.89-47.27-41.22-47.27-18.69,0-37.1,12.37-37.1,33.25,0,47.54,101.14,49.74,101.14,111.85,0,34.35-31.61,51.94-65.68,51.94Z"/>
        <path class="cls-1" d="M935.08,44.8v155.55h-2.47l-97.84-173.42v129.44c0,22.54,8.24,38.75,20.34,40.4h-43.42c12.37-1.65,20.61-17.86,20.61-40.4V41.5c0-22.54-6.6-32.7-20.61-37.1h37.38l83.82,147.31V44.8c0-22.54-8.52-38.75-20.61-40.4h43.42c-12.09,1.65-20.61,17.86-20.61,40.4Z"/>
        <path class="cls-1" d="M1007.64,196.78h-58.54c22.54-1.92,28.03-7.15,40.95-48.37L1036.49.55h1.38l53.04,167.09c7.42,23.91,14.84,26.93,36.28,29.13h-78.33c18.14-1.65,24.19-10.99,18.14-30.51l-9.62-31.88h-60.74l-4.95,16.49c-13.46,42.87-2.75,44.25,15.94,45.9ZM997.47,132.19h59.09l-29.13-95.92-29.96,95.92Z"/>
        <path class="cls-1" d="M1189.29,196.78h-63.21c12.37-1.65,20.61-4.12,20.61-26.66V31.05c0-22.54-8.24-25.01-20.61-26.66h58.54c91.79-.27,91.52,133.57,0,133.57v-1.37c61.84,0,62.11-129.72,0-129.72h-.55c-11.27,0-15.39,2.75-15.39,23.09v140.16c0,22.54,8.52,25.01,20.61,26.66Z"/>
        <path class="cls-1" d="M167.63,359.56h-37.44c7.33-.98,12.21-2.44,12.21-15.79v-82.37c0-13.35-4.88-14.81-12.21-15.79h34.67c54.37-.16,54.21,79.11,0,79.11h-9.44v19.04c0,13.35,5.05,14.81,12.21,15.79ZM155.42,323.26h9.44c36.63,0,36.79-76.18,0-76.18h-.33c-6.67,0-9.12,1.63-9.12,13.67v62.51Z"/>
        <path class="cls-1" d="M250.48,359.56h-37.44c7.33-.98,12.21-2.44,12.21-15.79v-82.37c0-13.35-4.88-14.81-12.21-15.79h37.44c-7.16.98-12.21,2.44-12.21,15.79v37.44h49.65v-37.44c0-13.35-4.88-14.81-12.21-15.79h37.44c-7.16.98-12.05,2.44-12.05,15.79v82.37c0,13.35,4.88,14.81,12.05,15.79h-37.44c7.33-.98,12.21-2.44,12.21-15.79v-43.46h-49.65v43.46c0,13.35,5.05,14.81,12.21,15.79Z"/>
        <path class="cls-1" d="M380.06,362c-29.79,0-59.41-19.86-59.41-59.42s29.79-59.41,59.41-59.41,59.42,19.7,59.42,59.41-29.79,59.42-59.42,59.42ZM384.94,359.72c21.32,0,41.35-16.6,41.51-49,.33-43.14-27.35-65.28-52.58-65.28-21,0-40.21,15.3-40.21,46.72,0,45.42,26.53,67.55,51.28,67.55Z"/>
        <path class="cls-1" d="M496.45,359.56h-37.44c7.32-.98,12.21-2.44,12.21-15.79v-96.69h-.16c-25.07,0-28,20.84-29.79,26.21l4.72-27.67h63.48l4.88,27.67c-1.95-5.37-4.88-26.21-29.79-26.21h-.16v96.69c0,13.35,4.88,14.81,12.05,15.79Z"/>
        <path class="cls-1" d="M575.4,362c-29.79,0-59.41-19.86-59.41-59.42s29.79-59.41,59.41-59.41,59.41,19.7,59.41,59.41-29.79,59.42-59.41,59.42ZM580.29,359.72c21.32,0,41.35-16.6,41.51-49,.33-43.14-27.35-65.28-52.58-65.28-21,0-40.21,15.3-40.21,46.72,0,45.42,26.53,67.55,51.28,67.55Z"/>
        <path class="cls-1" d="M725.82,359.56h-42.81c7.33-.98,12.21-2.44,12.21-15.79v-82.37c0-13.35-4.88-14.81-12.21-15.79h38.42c39.88,0,43.14,44.11,10.09,51.6,43.79,4.56,42,62.34-5.7,62.34ZM708.24,296.89h13.19c25.07,0,27.19-49.81.16-49.81h-5.37c-7.16.81-7.98,3.74-7.98,13.35v36.46ZM722.89,358.1h1.46c32.88,0,32.88-59.74-.81-59.74h-15.3v46.07c0,12.05.65,13.67,14.65,13.67Z"/>
        <path class="cls-1" d="M833.9,362c-29.79,0-59.41-19.86-59.41-59.42s29.62-59.58,59.41-59.58c12.21,0,24.42,3.42,34.67,10.09,10.09-6.67,22.3-10.09,34.51-10.09,29.79,0,59.42,19.86,59.42,59.58s-29.63,59.42-59.42,59.42c-12.21,0-24.42-3.42-34.51-10.09-10.26,6.67-22.46,10.09-34.67,10.09ZM838.79,359.72c9.77,0,19.04-3.42,26.53-10.09-12.86-9.77-21.65-25.56-21.65-47.04,0-19.04,6.84-33.53,17.25-43.3-9.77-9.12-21.81-13.84-33.37-13.84-20.84,0-40.04,15.3-40.04,46.72,0,45.42,26.53,67.55,51.28,67.55ZM871.99,341.66c5.21-7.81,8.3-18.07,8.3-30.93.16-20.84-6.35-36.95-15.95-47.86-4.72,7.33-7.65,17.09-7.65,29.3,0,21.81,6.19,38.25,15.3,49.48ZM908.13,359.72c21.32,0,41.18-16.44,41.35-49,.16-43.14-27.51-65.28-52.74-65.28-9.44,0-18.56,3.09-25.72,9.44,13.19,9.93,22.3,25.72,22.3,47.69,0,19.05-6.84,33.53-17.26,43.46,9.28,9.12,20.84,13.67,32.07,13.67Z"/>
        <path class="cls-1" d="M1019.48,359.56h-37.44c7.32-.98,12.21-2.44,12.21-15.79v-96.69h-.16c-25.07,0-28,20.84-29.79,26.21l4.72-27.67h63.48l4.88,27.67c-1.95-5.37-4.88-26.21-29.79-26.21h-.16v96.69c0,13.35,4.88,14.81,12.05,15.79Z"/>
        <path class="cls-1" d="M1082.15,359.56h-37.44c7.32-.98,12.21-2.44,12.21-15.79v-82.37c0-13.35-4.88-14.81-12.21-15.79h37.44c-7.16.98-12.21,2.44-12.21,15.79v37.44h49.65v-37.44c0-13.35-4.88-14.81-12.21-15.79h37.44c-7.16.98-12.04,2.44-12.04,15.79v82.37c0,13.35,4.88,14.81,12.04,15.79h-37.44c7.32-.98,12.21-2.44,12.21-15.79v-43.46h-49.65v43.46c0,13.35,5.04,14.81,12.21,15.79Z"/>
      </g>
      <g>
        <path class="cls-1" d="M19.67,495.71c5.5,0,9.48,1.91,13.19,5.07.44.44.49,1.09.05,1.53l-1.47,1.47c-.44.54-.87.49-1.42-.05-2.83-2.45-6.7-4.09-10.41-4.09-8.61,0-15.2,7.25-15.2,15.69s6.59,15.64,15.2,15.64c4.74,0,7.52-1.91,10.41-4.09.54-.44.98-.38,1.31-.16l1.63,1.47c.44.33.33,1.09-.05,1.47-3.71,3.6-8.39,5.29-13.24,5.29-10.9,0-19.67-8.66-19.67-19.56s8.77-19.67,19.67-19.67Z"/>
        <path class="cls-1" d="M50.46,497.29c0-.54.44-1.04,1.04-1.04h14.11c6.54,0,11.88,5.12,11.88,11.61,0,5.01-3.32,9.21-8.06,11.12l7.47,13.84c.38.71,0,1.58-.93,1.58h-2.78c-.49,0-.76-.27-.87-.49l-7.25-14.44h-10.41v13.89c0,.54-.49,1.04-1.04,1.04h-2.12c-.6,0-1.04-.49-1.04-1.04v-36.07ZM65.34,515.87c4.2,0,7.85-3.49,7.85-7.96,0-4.14-3.65-7.68-7.85-7.68h-10.57v15.64h10.57Z"/>
        <path class="cls-1" d="M96.13,497.29c0-.54.44-1.04,1.04-1.04h21.47c.6,0,1.04.49,1.04,1.04v1.58c0,.54-.44,1.04-1.04,1.04h-18.31v13.29h15.64c.54,0,1.04.49,1.04,1.04v1.58c0,.6-.49,1.04-1.04,1.04h-15.64v13.9h18.31c.6,0,1.04.49,1.04,1.04v1.58c0,.54-.44,1.04-1.04,1.04h-21.47c-.6,0-1.04-.49-1.04-1.04v-36.07Z"/>
        <path class="cls-1" d="M134.39,532.98l16.56-36.67c.16-.33.44-.6.93-.6h.54c.49,0,.76.27.93.6l16.46,36.67c.33.71-.11,1.42-.93,1.42h-2.18c-.49,0-.82-.33-.93-.6l-4.03-8.99h-19.34l-3.98,8.99c-.11.27-.44.6-.93.6h-2.18c-.82,0-1.25-.71-.93-1.42ZM160.27,521.42c-2.67-5.94-5.29-11.93-7.96-17.87h-.44l-7.96,17.87h16.35Z"/>
        <path class="cls-1" d="M188.17,499.9h-9.48c-.6,0-1.04-.49-1.04-1.04v-1.58c0-.54.44-1.04,1.04-1.04h23.1c.6,0,1.04.49,1.04,1.04v1.58c0,.54-.44,1.04-1.04,1.04h-9.48v33.46c0,.54-.49,1.04-1.04,1.04h-2.07c-.54,0-1.04-.49-1.04-1.04v-33.46Z"/>
        <path class="cls-1" d="M218.65,497.29c0-.54.49-1.04,1.04-1.04h2.18c.54,0,1.04.49,1.04,1.04v36.07c0,.54-.49,1.04-1.04,1.04h-2.18c-.54,0-1.04-.49-1.04-1.04v-36.07Z"/>
        <path class="cls-1" d="M243.49,496.69c0-.54.49-.98,1.04-.98h1.36l24.57,30.62h.11v-29.04c0-.54.44-1.04,1.04-1.04h1.91c.54,0,1.04.49,1.04,1.04v36.67c0,.54-.49.98-1.04.98h-.98l-25.01-31.22h-.05v29.64c0,.54-.44,1.04-1.04,1.04h-1.91c-.54,0-1.04-.49-1.04-1.04v-36.67Z"/>
        <path class="cls-1" d="M312.32,495.71c5.5,0,9.48,1.91,13.19,5.07.44.44.49,1.09.05,1.53-.49.49-1.09,1.04-1.53,1.53-.49.54-.82.49-1.42-.05-2.78-2.45-6.7-4.25-10.35-4.25-8.61,0-15.15,7.19-15.15,15.64s6.54,15.75,15.15,15.75c5.99,0,9.81-2.29,9.81-2.29v-7.63h-6.27c-.6,0-1.04-.44-1.04-.98v-2.02c0-.6.44-1.04,1.04-1.04h9.43c.54,0,.98.49.98,1.04v12.48c0,.27-.22.71-.44.87,0,0-5.56,3.6-13.46,3.6-10.9,0-19.67-8.66-19.67-19.56s8.77-19.67,19.67-19.67Z"/>
        <path class="cls-1" d="M373.51,496.47c.11-.44.54-.76.98-.76h.87c.38,0,.82.27.93.6l10.79,30.02h.27l10.63-30.02c.11-.33.54-.6.93-.6h.87c.44,0,.87.33.98.76l7.03,36.62c.16.76-.16,1.31-.98,1.31h-2.18c-.44,0-.87-.38-.98-.76l-4.85-28.06h-.22l-10.03,28.77c-.11.33-.6.6-.93.6h-.98c-.33,0-.82-.27-.93-.6l-10.13-28.77h-.22l-4.74,28.06c-.05.38-.54.76-.98.76h-2.18c-.82,0-1.14-.54-.98-1.31l7.03-36.62Z"/>
        <path class="cls-1" d="M425.77,497.29c0-.54.44-1.04,1.04-1.04h21.47c.6,0,1.04.49,1.04,1.04v1.58c0,.54-.44,1.04-1.04,1.04h-18.31v13.29h15.64c.54,0,1.04.49,1.04,1.04v1.58c0,.6-.49,1.04-1.04,1.04h-15.64v13.9h18.31c.6,0,1.04.49,1.04,1.04v1.58c0,.54-.44,1.04-1.04,1.04h-21.47c-.6,0-1.04-.49-1.04-1.04v-36.07Z"/>
        <path class="cls-1" d="M472.19,496.47c.11-.44.54-.76.98-.76h.87c.38,0,.82.27.93.6l10.79,30.02h.27l10.63-30.02c.11-.33.54-.6.93-.6h.87c.44,0,.87.33.98.76l7.03,36.62c.16.76-.16,1.31-.98,1.31h-2.18c-.44,0-.87-.38-.98-.76l-4.85-28.06h-.22l-10.03,28.77c-.11.33-.6.6-.93.6h-.98c-.33,0-.82-.27-.93-.6l-10.13-28.77h-.22l-4.74,28.06c-.05.38-.54.76-.98.76h-2.18c-.82,0-1.14-.54-.98-1.31l7.03-36.62Z"/>
        <path class="cls-1" d="M540.9,495.71c10.9,0,19.62,8.77,19.62,19.67s-8.72,19.56-19.62,19.56-19.56-8.66-19.56-19.56,8.66-19.67,19.56-19.67ZM540.9,531.12c8.66,0,15.8-7.08,15.8-15.75s-7.14-15.86-15.8-15.86-15.75,7.19-15.75,15.86,7.08,15.75,15.75,15.75Z"/>
        <path class="cls-1" d="M578.65,497.29c0-.54.44-1.04,1.04-1.04h14.11c6.54,0,11.88,5.12,11.88,11.61,0,5.01-3.32,9.21-8.06,11.12l7.46,13.84c.38.71,0,1.58-.93,1.58h-2.78c-.49,0-.76-.27-.87-.49l-7.25-14.44h-10.41v13.89c0,.54-.49,1.04-1.04,1.04h-2.12c-.6,0-1.04-.49-1.04-1.04v-36.07ZM593.52,515.87c4.2,0,7.85-3.49,7.85-7.96,0-4.14-3.65-7.68-7.85-7.68h-10.57v15.64h10.57Z"/>
        <path class="cls-1" d="M620.28,532.98l16.56-36.67c.16-.33.44-.6.93-.6h.54c.49,0,.76.27.93.6l16.46,36.67c.33.71-.11,1.42-.93,1.42h-2.18c-.49,0-.82-.33-.93-.6l-4.03-8.99h-19.34l-3.98,8.99c-.11.27-.44.6-.93.6h-2.18c-.82,0-1.25-.71-.93-1.42ZM646.16,521.42c-2.67-5.94-5.29-11.93-7.96-17.87h-.44l-7.96,17.87h16.35Z"/>
        <path class="cls-1" d="M671.58,497.29c0-.54.44-1.04,1.04-1.04h11.93c6.65,0,11.17,4.3,11.17,10.03,0,4.2-2.78,7.25-5.34,8.72,2.89,1.2,6.54,3.87,6.54,8.88,0,6.1-4.85,10.52-11.88,10.52h-12.42c-.6,0-1.04-.49-1.04-1.04v-36.07ZM685.48,530.74c3.98,0,6.87-3,6.87-6.92s-3.54-6.7-7.79-6.7h-8.99v13.62h9.92ZM684.55,513.36c4.2,0,6.54-3,6.54-6.81s-2.34-6.54-6.54-6.54h-8.88v13.35h8.88Z"/>
        <path class="cls-1" d="M715.54,497.29c0-.54.44-1.04,1.04-1.04h2.12c.54,0,1.04.49,1.04,1.04v33.46h15.69c.6,0,1.04.49,1.04,1.04v1.58c0,.54-.44,1.04-1.04,1.04h-18.85c-.6,0-1.04-.49-1.04-1.04v-36.07Z"/>
        <path class="cls-1" d="M752.21,497.29c0-.54.44-1.04,1.04-1.04h21.47c.6,0,1.04.49,1.04,1.04v1.58c0,.54-.44,1.04-1.04,1.04h-18.31v13.29h15.64c.54,0,1.04.49,1.04,1.04v1.58c0,.6-.49,1.04-1.04,1.04h-15.64v13.9h18.31c.6,0,1.04.49,1.04,1.04v1.58c0,.54-.44,1.04-1.04,1.04h-21.47c-.6,0-1.04-.49-1.04-1.04v-36.07Z"/>
        <path class="cls-1" d="M818.35,497.29c0-.54.44-1.04,1.04-1.04h21.47c.6,0,1.04.49,1.04,1.04v1.58c0,.54-.44,1.04-1.04,1.04h-18.31v13.29h15.64c.54,0,1.04.49,1.04,1.04v1.58c0,.6-.49,1.04-1.04,1.04h-15.64v13.9h18.31c.6,0,1.04.49,1.04,1.04v1.58c0,.54-.44,1.04-1.04,1.04h-21.47c-.6,0-1.04-.49-1.04-1.04v-36.07Z"/>
        <path class="cls-1" d="M868.56,514.83l-10.63-17.06c-.44-.71,0-1.53.93-1.53h2.94c.38,0,.76.22.93.49l8.39,14.44h.05l8.5-14.44c.16-.27.49-.49.93-.49h2.94c.93,0,1.36.82.93,1.53l-10.62,17.06,11.01,18.04c.44.76,0,1.53-.93,1.53h-2.51c-.44,0-.82-.27-.93-.49l-9.32-15.42h-.05l-9.21,15.42c-.16.27-.49.49-.93.49h-2.51c-.98,0-1.42-.82-.98-1.53l11.06-18.04Z"/>
        <path class="cls-1" d="M901.74,497.29c0-.54.44-1.04,1.04-1.04h12.04c6.7,0,12.21,5.45,12.21,12.04s-5.5,12.26-12.15,12.26h-8.99v12.8c0,.54-.49,1.04-1.04,1.04h-2.07c-.6,0-1.04-.49-1.04-1.04v-36.07ZM914.55,516.52c4.47,0,8.28-3.65,8.28-8.34,0-4.41-3.81-7.79-8.28-7.79h-8.66v16.13h8.66Z"/>
        <path class="cls-1" d="M943.6,497.29c0-.54.44-1.04,1.04-1.04h21.47c.6,0,1.04.49,1.04,1.04v1.58c0,.54-.44,1.04-1.04,1.04h-18.31v13.29h15.64c.54,0,1.04.49,1.04,1.04v1.58c0,.6-.49,1.04-1.04,1.04h-15.64v13.9h18.31c.6,0,1.04.49,1.04,1.04v1.58c0,.54-.44,1.04-1.04,1.04h-21.47c-.6,0-1.04-.49-1.04-1.04v-36.07Z"/>
        <path class="cls-1" d="M984.4,497.29c0-.54.44-1.04,1.04-1.04h14.11c6.54,0,11.88,5.12,11.88,11.61,0,5.01-3.32,9.21-8.06,11.12l7.46,13.84c.38.71,0,1.58-.93,1.58h-2.78c-.49,0-.76-.27-.87-.49l-7.25-14.44h-10.41v13.89c0,.54-.49,1.04-1.04,1.04h-2.12c-.6,0-1.04-.49-1.04-1.04v-36.07ZM999.28,515.87c4.2,0,7.85-3.49,7.85-7.96,0-4.14-3.65-7.68-7.85-7.68h-10.57v15.64h10.57Z"/>
        <path class="cls-1" d="M1030.07,497.29c0-.54.49-1.04,1.04-1.04h2.18c.54,0,1.04.49,1.04,1.04v36.07c0,.54-.49,1.04-1.04,1.04h-2.18c-.54,0-1.04-.49-1.04-1.04v-36.07Z"/>
        <path class="cls-1" d="M1054.91,497.29c0-.54.44-1.04,1.04-1.04h21.47c.6,0,1.04.49,1.04,1.04v1.58c0,.54-.44,1.04-1.04,1.04h-18.31v13.29h15.64c.54,0,1.04.49,1.04,1.04v1.58c0,.6-.49,1.04-1.04,1.04h-15.64v13.9h18.31c.6,0,1.04.49,1.04,1.04v1.58c0,.54-.44,1.04-1.04,1.04h-21.47c-.6,0-1.04-.49-1.04-1.04v-36.07Z"/>
        <path class="cls-1" d="M1095.71,496.69c0-.54.49-.98,1.04-.98h1.36l24.57,30.62h.11v-29.04c0-.54.44-1.04,1.04-1.04h1.91c.54,0,1.04.49,1.04,1.04v36.67c0,.54-.49.98-1.04.98h-.98l-25.01-31.22h-.05v29.64c0,.54-.44,1.04-1.04,1.04h-1.91c-.54,0-1.04-.49-1.04-1.04v-36.67Z"/>
        <path class="cls-1" d="M1164.54,495.71c5.5,0,9.48,1.91,13.19,5.07.44.44.49,1.09.05,1.53l-1.47,1.47c-.44.54-.87.49-1.42-.05-2.83-2.45-6.7-4.09-10.41-4.09-8.61,0-15.2,7.25-15.2,15.69s6.59,15.64,15.2,15.64c4.74,0,7.52-1.91,10.41-4.09.54-.44.98-.38,1.31-.16l1.63,1.47c.44.33.33,1.09-.05,1.47-3.71,3.6-8.39,5.29-13.24,5.29-10.9,0-19.67-8.66-19.67-19.56s8.77-19.67,19.67-19.67Z"/>
        <path class="cls-1" d="M1195.34,497.29c0-.54.44-1.04,1.04-1.04h21.47c.6,0,1.04.49,1.04,1.04v1.58c0,.54-.44,1.04-1.04,1.04h-18.31v13.29h15.64c.54,0,1.04.49,1.04,1.04v1.58c0,.6-.49,1.04-1.04,1.04h-15.64v13.9h18.31c.6,0,1.04.49,1.04,1.04v1.58c0,.54-.44,1.04-1.04,1.04h-21.47c-.6,0-1.04-.49-1.04-1.04v-36.07Z"/>
        <path class="cls-1" d="M1234.77,528.67c.27-.33.54-.71.82-1.04.54-.71,1.14-1.14,1.91-.49.38.33,4.36,4.14,9.21,4.14,4.41,0,7.3-2.78,7.3-5.99,0-3.76-3.27-5.99-9.54-8.61-5.99-2.62-9.59-5.07-9.59-11.28,0-3.71,2.94-9.7,11.61-9.7,5.34,0,9.32,2.78,9.32,2.78.33.16.98.82.33,1.85-.22.33-.44.71-.65,1.04-.49.76-1.04.98-1.91.49-.38-.22-3.81-2.51-7.14-2.51-5.78,0-7.52,3.71-7.52,5.99,0,3.65,2.78,5.78,7.36,7.68,7.36,3,12.1,5.78,12.1,12.1,0,5.67-5.39,9.81-11.77,9.81s-10.79-3.76-11.5-4.41c-.44-.38-.98-.82-.33-1.85Z"/>
      </g>
    </g>
  </g>
</svg>
