<?xml version="1.0" encoding="utf-8"?>
<!-- Generator: Adobe Illustrator 22.1.0, SVG Export Plug-In . SVG Version: 6.00 Build 0)  -->
<svg version="1.1" id="Layer_1" xmlns="http://www.w3.org/2000/svg" xmlns:xlink="http://www.w3.org/1999/xlink" x="0px" y="0px"
	 viewBox="0 0 681 260" style="enable-background:new 0 0 681 260;" xml:space="preserve">
<style type="text/css">
	.st0{fill:#29398C;}
	.st1{fill:#2B3990;}
	.st2{fill:#27AAE1;}
	.st3{fill:#2E3192;}
	.st4{fill:#2C6393;}
	.st5{fill:#1C75BC;}
	.st6{fill:#FFFFFF;}
	.st7{fill:none;}
	.st8{enable-background:new    ;}
</style>
<g>
	<path class="st0" d="M219.3,228.1c0.2,0,0.6-0.1,1-0.1c0.4-0.1,0.9-0.1,1.5-0.1s1.1-0.1,1.6-0.1c0.6,0,1.1-0.1,1.5-0.1
		c1.5,0,2.8,0.1,4,0.4c1.2,0.3,2.2,0.8,3.1,1.4c0.9,0.6,1.5,1.5,2,2.5s0.7,2.3,0.7,3.7c0,1.6-0.3,2.9-0.8,4s-1.3,2-2.2,2.7
		s-2,1.2-3.2,1.5s-2.5,0.5-3.8,0.5c-0.6,0-1.1,0-1.5,0s-0.9-0.1-1.4-0.1v10.5c-0.2,0-0.4,0-0.6,0.1s-0.4,0-0.7,0c-0.2,0-0.5,0-0.7,0
		s-0.4,0-0.6-0.1L219.3,228.1L219.3,228.1z M221.9,242c0.2,0,0.5,0,0.7,0.1c0.2,0,0.4,0,0.6,0c0.2,0,0.4,0,0.6,0c0.2,0,0.5,0,0.9,0
		c0.9,0,1.8-0.1,2.6-0.2c0.9-0.1,1.7-0.5,2.4-0.9c0.7-0.5,1.3-1.1,1.7-1.9c0.4-0.8,0.7-1.9,0.7-3.3c0-1.1-0.2-2-0.5-2.7
		s-0.8-1.3-1.4-1.8c-0.6-0.4-1.4-0.8-2.3-1s-1.9-0.3-3-0.3c-0.6,0-1.2,0-1.7,0.1c-0.5,0-0.9,0.1-1.2,0.1V242H221.9z"/>
	<path class="st0" d="M246,228.1c0.2,0,0.4,0,0.6-0.1c0.2,0,0.5,0,0.7,0s0.4,0,0.7,0c0.2,0,0.4,0,0.6,0.1v11.4h13.2v-11.4
		c0.2,0,0.4,0,0.6-0.1c0.2,0,0.4,0,0.7,0c0.2,0,0.4,0,0.7,0c0.2,0,0.5,0,0.6,0.1v26.7c-0.1,0-0.3,0-0.6,0.1c-0.2,0-0.5,0-0.7,0
		s-0.4,0-0.7,0c-0.2,0-0.4,0-0.6-0.1v-13h-13.2v13c-0.2,0-0.4,0-0.6,0.1s-0.4,0-0.7,0c-0.2,0-0.5,0-0.7,0s-0.4,0-0.6-0.1L246,228.1
		L246,228.1z"/>
	<path class="st0" d="M287.6,255.3c-1.9,0-3.5-0.3-4.9-1s-2.5-1.6-3.4-2.9c-0.9-1.2-1.6-2.7-2-4.4c-0.5-1.7-0.7-3.5-0.7-5.6
		c0-2,0.2-3.9,0.7-5.5c0.5-1.7,1.1-3.1,2-4.4c0.9-1.2,2-2.2,3.4-2.9s3-1,4.9-1s3.5,0.3,4.9,1s2.5,1.6,3.4,2.9c0.9,1.2,1.6,2.7,2,4.4
		c0.5,1.7,0.7,3.5,0.7,5.5s-0.2,3.9-0.7,5.6c-0.5,1.7-1.1,3.2-2,4.4s-2.1,2.2-3.4,2.9C291.1,254.9,289.5,255.3,287.6,255.3z
		 M287.6,252.9c1.4,0,2.7-0.3,3.7-0.8c1-0.6,1.9-1.3,2.6-2.4c0.7-1,1.2-2.2,1.5-3.6c0.3-1.4,0.5-3,0.5-4.6s-0.2-3.2-0.5-4.6
		c-0.3-1.4-0.8-2.6-1.5-3.6s-1.6-1.8-2.6-2.3c-1-0.6-2.3-0.8-3.7-0.8c-1.4,0-2.7,0.3-3.7,0.8c-1.1,0.6-1.9,1.3-2.6,2.3
		s-1.2,2.2-1.5,3.6c-0.3,1.4-0.5,3-0.5,4.6s0.2,3.2,0.5,4.6c0.3,1.4,0.8,2.6,1.5,3.6s1.5,1.8,2.6,2.4
		C284.9,252.7,286.2,252.9,287.6,252.9z"/>
	<path class="st0" d="M313.6,230.4h-7.2c0-0.1,0-0.3-0.1-0.5c0-0.2,0-0.4,0-0.6c0-0.2,0-0.4,0-0.6c0-0.2,0-0.4,0.1-0.6h16.9
		c0,0.1,0,0.3,0.1,0.5c0,0.2,0,0.4,0,0.6c0,0.2,0,0.4,0,0.6c0,0.2,0,0.4-0.1,0.6h-7.2v24.4c-0.2,0-0.4,0-0.6,0.1c-0.2,0-0.4,0-0.7,0
		c-0.2,0-0.5,0-0.7,0s-0.4,0-0.6-0.1v-24.4H313.6z"/>
	<path class="st0" d="M342.3,255.3c-1.9,0-3.5-0.3-4.9-1s-2.5-1.6-3.4-2.9c-0.9-1.2-1.6-2.7-2-4.4c-0.5-1.7-0.7-3.5-0.7-5.6
		c0-2,0.2-3.9,0.7-5.5c0.5-1.7,1.1-3.1,2-4.4c0.9-1.2,2-2.2,3.4-2.9s3-1,4.9-1s3.5,0.3,4.9,1s2.5,1.6,3.4,2.9c0.9,1.2,1.6,2.7,2,4.4
		c0.5,1.7,0.7,3.5,0.7,5.5s-0.2,3.9-0.7,5.6c-0.5,1.7-1.1,3.2-2,4.4s-2,2.2-3.4,2.9C345.7,254.9,344.1,255.3,342.3,255.3z
		 M342.3,252.9c1.4,0,2.7-0.3,3.7-0.8c1-0.6,1.9-1.3,2.6-2.4c0.7-1,1.2-2.2,1.5-3.6c0.3-1.4,0.5-3,0.5-4.6s-0.2-3.2-0.5-4.6
		c-0.3-1.4-0.8-2.6-1.5-3.6s-1.6-1.8-2.6-2.3c-1-0.6-2.3-0.8-3.7-0.8s-2.7,0.3-3.7,0.8c-1.1,0.6-1.9,1.3-2.6,2.3s-1.2,2.2-1.5,3.6
		c-0.3,1.4-0.5,3-0.5,4.6s0.2,3.2,0.5,4.6c0.3,1.4,0.8,2.6,1.5,3.6s1.5,1.8,2.6,2.4C339.6,252.7,340.8,252.9,342.3,252.9z"/>
	<path class="st0" d="M381,228.1c0.2,0,0.6-0.1,1.1-0.1s0.9-0.1,1.5-0.1c0.5,0,1-0.1,1.6-0.1c0.5,0,1,0,1.4,0c2.9,0,5.2,0.6,6.7,1.7
		s2.3,2.9,2.3,5.3c0,0.8-0.1,1.5-0.4,2.1c-0.2,0.6-0.6,1.2-0.9,1.7s-0.9,0.9-1.4,1.3c-0.5,0.3-1.1,0.6-1.7,0.8
		c0.8,0.1,1.5,0.3,2.2,0.6s1.4,0.7,1.9,1.3c0.6,0.6,1,1.3,1.3,2.1s0.5,1.8,0.5,3c0,1.3-0.3,2.5-0.8,3.5s-1.3,1.8-2.2,2.4
		c-1,0.6-2.1,1.1-3.4,1.4c-1.3,0.3-2.7,0.5-4.3,0.5c-0.4,0-0.8,0-1.3,0s-1-0.1-1.5-0.1s-1-0.1-1.5-0.1c-0.5-0.1-0.9-0.1-1.2-0.2
		L381,228.1L381,228.1z M387.1,239.5c2,0,3.5-0.4,4.4-1.3c0.9-0.9,1.4-2.1,1.4-3.5c0-1.3-0.5-2.5-1.5-3.4s-2.5-1.4-4.6-1.4
		c-0.6,0-1.3,0-1.8,0.1s-1,0.1-1.4,0.1v9.3L387.1,239.5L387.1,239.5z M383.5,252.7c0.3,0,0.8,0.1,1.4,0.1s1.2,0.1,1.8,0.1
		c1,0,1.9-0.1,2.8-0.3s1.8-0.5,2.5-0.9s1.3-1,1.7-1.7c0.4-0.7,0.6-1.6,0.6-2.6s-0.2-1.9-0.6-2.6c-0.4-0.7-0.9-1.3-1.5-1.7
		s-1.4-0.8-2.3-1s-1.8-0.3-2.8-0.3h-3.8v10.9H383.5z"/>
	<path class="st0" d="M418.6,255.3c-1.9,0-3.5-0.3-4.9-1s-2.5-1.6-3.4-2.9c-0.9-1.2-1.6-2.7-2-4.4c-0.5-1.7-0.7-3.5-0.7-5.6
		c0-2,0.2-3.9,0.7-5.5c0.5-1.7,1.1-3.1,2-4.4c0.9-1.2,2-2.2,3.4-2.9s3-1,4.9-1s3.5,0.3,4.9,1s2.5,1.6,3.4,2.9c0.9,1.2,1.6,2.7,2,4.4
		c0.5,1.7,0.7,3.5,0.7,5.5s-0.2,3.9-0.7,5.6c-0.5,1.7-1.1,3.2-2,4.4s-2,2.2-3.4,2.9C422.1,254.9,420.4,255.3,418.6,255.3z
		 M418.6,252.9c1.4,0,2.7-0.3,3.7-0.8c1-0.6,1.9-1.3,2.6-2.4c0.7-1,1.2-2.2,1.5-3.6c0.3-1.4,0.5-3,0.5-4.6s-0.2-3.2-0.5-4.6
		c-0.3-1.4-0.8-2.6-1.5-3.6s-1.6-1.8-2.6-2.3c-1-0.6-2.3-0.8-3.7-0.8s-2.7,0.3-3.7,0.8c-1.1,0.6-1.9,1.3-2.6,2.3s-1.2,2.2-1.5,3.6
		c-0.3,1.4-0.5,3-0.5,4.6s0.2,3.2,0.5,4.6c0.3,1.4,0.8,2.6,1.5,3.6s1.5,1.8,2.6,2.4C415.9,252.7,417.1,252.9,418.6,252.9z"/>
	<path class="st0" d="M451.5,255.3c-1.9,0-3.5-0.3-4.9-1s-2.5-1.6-3.4-2.9c-0.9-1.2-1.6-2.7-2-4.4c-0.5-1.7-0.7-3.5-0.7-5.6
		c0-2,0.2-3.9,0.7-5.5c0.5-1.7,1.1-3.1,2-4.4c0.9-1.2,2-2.2,3.4-2.9s3-1,4.9-1s3.5,0.3,4.9,1s2.5,1.6,3.4,2.9c0.9,1.2,1.6,2.7,2,4.4
		c0.5,1.7,0.7,3.5,0.7,5.5s-0.2,3.9-0.7,5.6c-0.5,1.7-1.1,3.2-2,4.4s-2,2.2-3.4,2.9C455,254.9,453.4,255.3,451.5,255.3z
		 M451.5,252.9c1.4,0,2.7-0.3,3.7-0.8c1-0.6,1.9-1.3,2.6-2.4c0.7-1,1.2-2.2,1.5-3.6c0.3-1.4,0.5-3,0.5-4.6s-0.2-3.2-0.5-4.6
		c-0.3-1.4-0.8-2.6-1.5-3.6s-1.6-1.8-2.6-2.3c-1-0.6-2.3-0.8-3.7-0.8s-2.7,0.3-3.7,0.8c-1.1,0.6-1.9,1.3-2.6,2.3s-1.2,2.2-1.5,3.6
		c-0.3,1.4-0.5,3-0.5,4.6s0.2,3.2,0.5,4.6c0.3,1.4,0.8,2.6,1.5,3.6s1.5,1.8,2.6,2.4C448.8,252.7,450.1,252.9,451.5,252.9z"/>
	<path class="st0" d="M477.6,230.4h-7.2c0-0.1,0-0.3-0.1-0.5c0-0.2,0-0.4,0-0.6c0-0.2,0-0.4,0-0.6c0-0.2,0-0.4,0.1-0.6h16.9
		c0,0.1,0,0.3,0.1,0.5s0,0.4,0,0.6c0,0.2,0,0.4,0,0.6c0,0.2,0,0.4-0.1,0.6h-7.2v24.4c-0.2,0-0.4,0-0.6,0.1s-0.4,0-0.7,0
		c-0.2,0-0.5,0-0.7,0s-0.4,0-0.6-0.1v-24.4H477.6z"/>
	<path class="st0" d="M497.9,228.1c0.2,0,0.4,0,0.6-0.1c0.2,0,0.5,0,0.7,0s0.4,0,0.7,0c0.2,0,0.4,0,0.6,0.1v11.4h13.2v-11.4
		c0.2,0,0.4,0,0.6-0.1c0.2,0,0.4,0,0.7,0c0.2,0,0.4,0,0.7,0c0.2,0,0.5,0,0.6,0.1v26.7c-0.1,0-0.3,0-0.6,0.1s-0.5,0-0.7,0
		s-0.4,0-0.7,0s-0.4,0-0.6-0.1v-13h-13.2v13c-0.2,0-0.4,0-0.6,0.1c-0.2,0-0.4,0-0.7,0c-0.2,0-0.5,0-0.7,0s-0.4,0-0.6-0.1
		L497.9,228.1L497.9,228.1z"/>
</g>
<g>
	<path class="st1" d="M213.2,179.9h30.1c0,13.6,13.6,15.8,20.4,16.2c5.7,0,13.7-1.3,13.7-8.1c0-12.6-62.1-7.3-62.1-48.5
		c0-23.9,22.6-34.8,38.5-34.8c13.6,0,27.3,4.4,33.8,16.5l1.6-13.6H317v40.6h-29.3c0-12-9.4-18.8-20.7-18.8c-4.7,0-11.2,2.9-11.2,8.6
		c0,16.7,64,12.8,64,50.8c0,25.2-23.6,34.3-42.9,34.3c-16.3,0-27.7-7.6-33.8-14.9l-1.8,12.5H213v-40.8H213.2z"/>
	<path class="st1" d="M328.1,220.7v-21.2h6.8v-38.7h-6.8v-21h34.4l3.7,10c5.5-7.6,12.9-12.9,23.1-12.9c25.1,0,29.3,18.6,29.3,35.6
		v27h7.6v21.2h-40.8v-44.2c0-5.5,0.5-15-9.1-15c-8.2,0-10.2,8.1-10.2,15v23h11.6v21.2H328.1z"/>
	<path class="st1" d="M434.5,146.6c6.5-3.9,20.4-11.5,35.3-11.5c19.4,0,43.8,7.3,43.8,33.3V200h9.7v20.7h-34.6l-3.9-7.3
		c-6,8.2-16,10.4-21.8,10.4c-15.4,0-31.9-8.2-31.9-27c0-18.3,15.4-29.8,33.6-29.8c9.5,0,15.2,4.7,16,5.7V167c0-7.3-6.6-9.1-15.4-9.1
		c-9.5,0-18,4-24.1,7.4L434.5,146.6z M480.7,191.3c-0.5-0.8-2.7-4.7-9.5-4.7c-6.5,0-9.4,3.6-9.4,8.6c0,4.5,3.7,7.6,8.6,7.6
		s8.9-2.9,10.4-5.3v-6.2L480.7,191.3L480.7,191.3z"/>
	<path class="st1" d="M536.5,232.5v-71.2h-6.8v-21.5h37l2.7,5.7c3.1-2.3,9.9-7,19.6-7c25.2,0,38.2,19.4,38.2,42.4
		c0,25.7-16,41.6-36.9,41.6c-13.4,0-19.9-5.3-21-6.3v16.3h8.7v21.2h-48.4v-21.2H536.5z M580.8,161.3c-6.3,0-12.1,7.9-11.5,20.7
		c0,11,5.5,19.4,11.6,19.4c6.8,0,11.5-7.9,11.5-20.2C592.5,171.5,588,161.3,580.8,161.3z"/>
	<path class="st1" d="M651.8,206c11.5,0,19.2,7.9,19.2,17.1c0,9.1-7.4,16.7-19.2,16.7c-10.5,0-18.4-8.2-18.4-16.7
		C633.4,215.1,640.2,206,651.8,206z M634,126.6h38.7v30.7l-8.6,40.8h-21.3l-8.7-40.8v-30.7C634.1,126.6,634,126.6,634,126.6z"/>
</g>
<g>
	<path class="st1" d="M316.4,75.2c0-34.9,23.3-59,56.8-59c39.6,0,58.1,23.8,58.1,60.2c0,36.6-20.4,58.9-56.9,58.9
		C340.5,135.2,316.4,115.7,316.4,75.2z M390.8,76.4c0-19.6-5.3-35.3-17.8-35.3c-9.9-0.2-16.7,14.1-16.7,34.1
		c0,21.2,7.6,34.6,18,34.6C384.5,109.8,390.8,96.4,390.8,76.4z"/>
	<path class="st1" d="M429.7,132.3v-21.2h6.8V32h-6.8V11h39.1v50.5c1.8-2.9,13.6-12.9,25.4-12.9c25.1,0,28.3,18.6,28.3,35.6v27h7.6
		v21.2h-41.6v-44c0-5.5,0-15-9.5-15c-8.2,0-10.2,8.1-10.2,15v22.8h11.6v21.2L429.7,132.3L429.7,132.3z"/>
	<path class="st1" d="M528.5,132.3v-21.2h6.8V32h-6.8V11h39.1v50.5c1.8-2.9,13.6-12.9,25.4-12.9c25.1,0,28.3,18.6,28.3,35.6v27h7.6
		v21.2h-41.6v-44c0-5.5,0-15-9.5-15c-8.2,0-10.2,8.1-10.2,15v22.8h11.6v21.2L528.5,132.3L528.5,132.3z"/>
</g>
<g id="bubble">
	<path class="st2" d="M165,241.4c-17.5-5.7-29.5-14.4-36.8-21.1c-9.5,2.7-19.5,4-29.8,4c-0.5,0-0.9,0-1.4,0
		c-19.9-0.2-39.2-5.7-54.5-15.5c-15.3-9.7-25.9-23.3-29.9-38.2c-1.2-4.7-1.8-9.5-1.8-14.3c0.3-21.8,14.4-42.1,37.7-54.3
		c14.4-7.5,31.3-11.5,48.8-11.5c0.5,0,0.9,0,1.4,0c23.1,0.3,44.7,7.4,60.9,20c16.6,12.9,25.5,29.9,25.3,48
		c-0.2,17.7-9.2,34.1-25.5,46.5c1.6,13,5,20.2,8.1,26.5c0.8,1.6,1.5,3.1,2.2,4.7l3.4,7.9L165,241.4z"/>
	<path class="st3" d="M97.3,94.4c0.4,0,0.9,0,1.3,0c46,0.6,82.9,29.2,82.4,64c-0.2,17.7-10.1,33.5-25.7,44.7
		c1.9,18.6,7.3,26.4,10.8,34.5c-18-5.9-29.8-14.8-36.9-21.8c-9.5,2.9-20,4.5-30.9,4.5c-0.5,0-0.9,0-1.4,0
		c-40-0.5-73.1-22.3-80.8-50.8c-1.1-4.3-1.7-8.7-1.7-13.2c0.3-21.2,14.3-39.7,35.7-50.9C63.7,98.5,79.8,94.4,97.3,94.4 M97.3,86.7
		L97.3,86.7c-18.2,0-35.7,4.1-50.6,12C22.1,111.5,7.2,133,6.9,156.2c-0.1,5.2,0.6,10.3,1.9,15.3c4.3,15.8,15.5,30.2,31.6,40.4
		c15.9,10.1,36,15.8,56.5,16.1c0.5,0,1,0,1.4,0c9.9,0,19.6-1.2,28.8-3.6c7.7,6.8,19.6,15,36.6,20.5l16.3,5.3l-6.9-15.8
		c-0.7-1.7-1.5-3.3-2.3-4.9c-2.9-6-5.8-12.1-7.4-23.1c16.1-12.9,25-29.9,25.2-48.1c0.3-19.3-9.3-37.4-26.8-51
		c-16.7-13-39.1-20.3-63-20.6C98.3,86.7,97.8,86.7,97.3,86.7L97.3,86.7z"/>
</g>
<path id="shade" class="st4" d="M154.2,148.4c0,0-23.3,20.3-62.4,48.8l-75.5-27.6c-1.1-4.3-1.7-8.7-1.7-13.2
	c0.3-21.2,14.3-39.7,35.7-50.9L154.2,148.4z"/>
<path id="side" class="st1" d="M179,15.1C179,15.1,179.1,15.1,179,15.1C179.1,15.1,179.1,15.1,179,15.1c0.1,0,0.2,0,0.3,0
	c-23.8-2.2-47.7-4.5-71.5-6.7l0,0l0,0l0,0l0,0l0,0l0,0h-0.1h-0.1h-0.1l0,0h-0.1l-21,1.9l-5.8,0.5l-40.3,3.7c-0.1,0-0.2,0-0.3,0
	s-0.2,0-0.3,0s-0.2,0-0.3,0s-0.2,0-0.3,0s-0.2,0-0.3,0.1h-0.1h-0.1c-0.1,0-0.2,0-0.3,0.1c-0.3,0.1-0.5,0.2-0.8,0.2
	c-0.1,0-0.1,0-0.2,0.1h-0.1h-0.1c-0.1,0.1-0.3,0.1-0.4,0.2c-0.3,0.1-0.5,0.2-0.8,0.3c0,0,0,0-0.1,0l0,0l0,0c-0.1,0-0.2,0.1-0.3,0.1
	C35.1,16,35,16,34.9,16.1s-0.2,0.1-0.4,0.2c-0.1,0.1-0.2,0.1-0.3,0.2c0,0-0.1,0-0.1,0.1c0,0-0.1,0-0.1,0.1c0,0-0.1,0-0.1,0.1
	c0,0-0.1,0-0.1,0.1c-0.1,0.1-0.3,0.2-0.4,0.3c-0.1,0.1-0.3,0.2-0.4,0.3l-0.1,0.1l0,0l0,0c-0.1,0.1-0.2,0.1-0.2,0.2
	c-0.1,0.1-0.2,0.2-0.4,0.3c-0.1,0.1-0.2,0.2-0.3,0.3c-0.1,0.1-0.1,0.1-0.2,0.2l0,0l0,0l-0.1,0.1c-0.1,0.1-0.2,0.2-0.3,0.3
	c-0.1,0.1-0.2,0.2-0.3,0.4c-0.1,0.1-0.2,0.2-0.3,0.4l0,0l0,0l0,0c-0.1,0.1-0.2,0.2-0.3,0.3c-0.1,0.1-0.2,0.3-0.3,0.4
	c-0.1,0.1-0.2,0.3-0.3,0.4l0,0l0,0l0,0l0,0c-0.1,0.1-0.2,0.3-0.3,0.4c-0.1,0.1-0.2,0.3-0.3,0.4C29,22,29,22.1,28.9,22.3
	c0,0.1-0.1,0.1-0.1,0.2l0,0l0,0l-0.1,0.1c-0.1,0.2-0.2,0.4-0.3,0.5c-0.1,0.2-0.2,0.4-0.3,0.5c0,0.1-0.1,0.2-0.1,0.2s0,0,0,0.1
	c0,0,0,0,0,0.1s-0.1,0.1-0.1,0.2c-0.1,0.2-0.2,0.4-0.2,0.6c-0.1,0.2-0.2,0.4-0.2,0.6c0,0.1,0,0.1-0.1,0.2l0,0l0,0
	c0,0.1-0.1,0.3-0.1,0.4c-0.1,0.2-0.1,0.4-0.2,0.6S27,27,26.9,27.2v0.1v0.1v0.1v0.1c-0.1,0.3-0.1,0.5-0.1,0.8c0,0.2-0.1,0.4-0.1,0.6
	v0.1c0,0.1,0,0.1,0,0.2c0,0.3-0.1,0.6-0.1,0.9c0,0.2-0.1,0.4-0.1,0.6v0.1V31c0,0.3,0,0.7,0,1c0,0.2,0,0.4,0,0.6c0,0,0,0,0,0.1
	c0,0,0,0,0,0.1c0,0.6,0.1,1.1,0.1,1.7l16.6,86l3.7,30.2c0,0.2,0.1,0.3,0.1,0.5s0.1,0.3,0.2,0.4c0.1,0.1,0.1,0.3,0.2,0.4
	c0.1,0.1,0.2,0.2,0.3,0.3c13.3,14.7,27,29.4,40.6,44c-0.1-0.1-0.2-0.2-0.3-0.4c-0.1-0.1-0.2-0.3-0.2-0.5c-0.1-0.2-0.1-0.3-0.2-0.5
	c0-0.2-0.1-0.4-0.1-0.6l-2.2-38L77.1,53.1c0-0.8-0.1-1.6,0-2.4c0-0.3,0-0.6,0.1-1c0-0.5,0.1-1,0.1-1.5c0-0.3,0.1-0.6,0.1-0.9
	c0.1-0.5,0.1-1,0.2-1.5c0.1-0.3,0.1-0.7,0.2-1c0.1-0.5,0.2-1.1,0.4-1.6c0.2-0.8,0.5-1.5,0.7-2.3c0,0,0-0.1,0.1-0.1
	c0.3-0.7,0.6-1.5,0.9-2.2c0,0,0,0,0-0.1c0.3-0.7,0.7-1.4,1.1-2.1l0,0c0.4-0.7,0.8-1.4,1.2-2c0.4-0.6,0.9-1.3,1.4-1.9l0,0
	c0.5-0.6,1-1.2,1.5-1.7l0,0c0.5-0.5,1-1,1.5-1.5l0.1-0.1c0.5-0.5,1.1-0.9,1.7-1.3s1.2-0.8,1.8-1.1l0,0c0.6-0.3,1.1-0.6,1.7-0.8
	c0.1,0,0.1-0.1,0.2-0.1c0.5-0.2,1.1-0.4,1.7-0.5c0.1,0,0.2-0.1,0.3-0.1c0.6-0.1,1.2-0.3,1.8-0.3l50.4-5.9l7.1-0.8l25.1-2.9
	c0.1,0,0.1,0,0.2,0c0.1,0,0.1,0,0.2,0C178.9,15.1,178.9,15.1,179,15.1C178.9,15.1,179,15.1,179,15.1z"/>
<g id="Front_1_">
	<g id="Front">
		<path class="st5" d="M184.3,24.6c0,0.4,0,0.9,0,1.4s-0.1,0.9-0.1,1.4s-0.1,1-0.2,1.5c-0.1,0.5-0.2,1-0.3,1.5
			c-11.2,39.1-20.9,78.3-29.6,118c-0.1,0.2-0.1,0.5-0.2,0.7c-0.1,0.2-0.1,0.5-0.2,0.7c-0.1,0.2-0.2,0.5-0.3,0.7s-0.2,0.5-0.3,0.7
			s-0.2,0.5-0.4,0.7c-0.1,0.2-0.3,0.5-0.4,0.7c-0.1,0.2-0.3,0.5-0.4,0.7c-0.2,0.2-0.3,0.5-0.5,0.7s-0.3,0.5-0.5,0.7
			s-0.4,0.5-0.5,0.7c-0.2,0.2-0.4,0.5-0.6,0.7c-0.2,0.2-0.4,0.4-0.6,0.6c-0.2,0.2-0.4,0.4-0.6,0.6c-0.2,0.2-0.4,0.4-0.6,0.6
			c-0.2,0.2-0.4,0.4-0.6,0.5c-0.2,0.2-0.4,0.3-0.6,0.5l-19.4,13.9l-15.9,11.4l-13.8,9.9c-0.3,0.2-0.6,0.4-0.9,0.6
			c-0.3,0.2-0.6,0.4-0.9,0.5c-0.3,0.2-0.6,0.3-0.9,0.4c-0.3,0.1-0.6,0.3-0.8,0.4c-0.1,0-0.2,0.1-0.2,0.1c-0.1,0-0.2,0.1-0.2,0.1
			c-0.1,0-0.2,0.1-0.2,0.1c-0.1,0-0.2,0.1-0.2,0.1c-0.2,0.1-0.4,0.1-0.6,0.2c-0.2,0.1-0.4,0.1-0.6,0.1s-0.4,0.1-0.6,0.1
			s-0.4,0-0.5,0c-0.2,0-0.5,0-0.7,0s-0.4-0.1-0.6-0.1c-0.2-0.1-0.4-0.1-0.6-0.2c-0.2-0.1-0.3-0.2-0.5-0.3c-0.1-0.1-0.3-0.3-0.4-0.4
			c-0.1-0.2-0.2-0.3-0.3-0.5c-0.1-0.2-0.2-0.4-0.2-0.6c-0.1-0.2-0.1-0.4-0.1-0.7l-2.2-38L77.1,53.1c0-0.8-0.1-1.7,0-2.5
			c0-0.8,0.1-1.7,0.2-2.5s0.2-1.7,0.4-2.5c0.2-0.8,0.4-1.6,0.6-2.4c0.2-0.8,0.5-1.6,0.8-2.4c0.3-0.8,0.6-1.5,0.9-2.3
			c0.3-0.7,0.7-1.5,1.1-2.2s0.8-1.4,1.2-2c0.4-0.6,0.9-1.3,1.4-1.9c0.5-0.6,1-1.2,1.5-1.7s1.1-1.1,1.6-1.5c0.6-0.5,1.1-0.9,1.7-1.3
			s1.2-0.8,1.8-1.1c0.6-0.3,1.2-0.6,1.8-0.9c0.6-0.2,1.3-0.5,1.9-0.6c0.6-0.2,1.3-0.3,1.9-0.4l50.4-5.9l7.1-0.8l25.1-2.9
			c0.4,0,0.7,0,1,0s0.6,0.1,0.8,0.2c0.3,0.1,0.5,0.2,0.7,0.3s0.4,0.3,0.6,0.4c0.2,0.2,0.4,0.4,0.6,0.6c0.2,0.2,0.4,0.5,0.5,0.8
			c0.2,0.3,0.3,0.6,0.5,0.9c0.1,0.3,0.3,0.7,0.4,1c0.1,0.4,0.2,0.7,0.3,1.1s0.2,0.8,0.2,1.2c0.1,0.4,0.1,0.9,0.1,1.3
			C184.3,23.7,184.3,24.1,184.3,24.6z"/>
	</g>
</g>
<path class="st1" d="M148.5,113.4l-48.2,18c-1.9,0.7-3.2,2.6-3.2,4.6v37.6c0,4,4.5,6.3,7.8,4.1l42.2-28.4c1.1-0.7,1.8-1.8,2.1-3
	l6-27.1C156,115.2,152.2,112,148.5,113.4z"/>
<path class="st6" d="M149.1,73.1c-3.7,13.2-14.9,23.3-24.9,22.6s-15.1-12.1-11.4-25.3s14.9-23.3,24.9-22.6
	C147.8,48.5,152.9,59.9,149.1,73.1z"/>
<rect x="645" y="5" class="st7" width="31" height="28"/>
<g class="st8">
	<path class="st1" d="M636,39.5c9.1,0,14.2,7.7,14.2,13.8c0,7.6-4.9,13.6-14.2,13.6c-8.2,0-14-6.7-14-13.6
		C622,47.2,626.9,39.5,636,39.5z M636,63.5c7,0,10.6-4.4,10.6-10.1c0-4.6-3.8-10.3-10.6-10.3s-10.4,5.8-10.4,10.3
		C625.5,58.5,629.9,63.5,636,63.5z M636.3,46.5c4.7,0,5.6,1.9,5.6,4.2c0,1.6-1.3,2.6-3,2.9c1.4,0.4,2.6,1.4,2.6,3
		c0,0.8,0.1,1.4,0.5,1.4c0.4,0,0.5-0.2,0.5-0.6v-0.7h1.4v1.2c0,1.7-0.7,3.2-3,3.2c-2.6,0-3.8-1.4-3.8-3.8c0-1.9-0.4-2.4-2.3-2.4v3.2
		h1.3v2.6h-6.5v-2.6h1.2v-8.9h-1.2v-2.8C629.7,46.5,636.3,46.5,636.3,46.5z M635,52.6h1c1.3,0,2-0.6,2-1.7c0-1.2-0.7-1.8-1.9-1.8h-1
		v3.5H635z"/>
</g>
</svg>
