<svg id="Layer_1" data-name="Layer 1" xmlns="http://www.w3.org/2000/svg" viewBox="0 0 204 260"><defs><style>.cls-1{fill:#27aae1;}.cls-2{fill:#2e3192;}.cls-3{fill:#2c6393;}.cls-4{fill:#2b3990;}.cls-5{fill:#1c75bc;}.cls-6{fill:#fff;}</style></defs><title>ohhsnap</title><g id="bubble"><path class="cls-1" d="M165,241.4a99.9,99.9,0,0,1-36.8-21.1,108.8,108.8,0,0,1-29.8,4H97c-19.9-.2-39.2-5.7-54.5-15.5s-25.9-23.3-29.9-38.2a57.8,57.8,0,0,1-1.8-14.3c0.3-21.8,14.4-42.1,37.7-54.3A106.1,106.1,0,0,1,97.3,90.5h1.4c23.1,0.3,44.7,7.4,60.9,20s25.5,29.9,25.3,48-9.2,34.1-25.5,46.5a74.1,74.1,0,0,0,8.1,26.5c0.8,1.6,1.5,3.1,2.2,4.7l3.4,7.9Z"/><path class="cls-2" d="M97.3,94.4h1.3c46,0.6,82.9,29.2,82.4,64-0.2,17.7-10.1,33.5-25.7,44.7,1.9,18.6,7.3,26.4,10.8,34.5-18-5.9-29.8-14.8-36.9-21.8a106.3,106.3,0,0,1-30.9,4.5H96.9c-40-.5-73.1-22.3-80.8-50.8a53.1,53.1,0,0,1-1.7-13.2c0.3-21.2,14.3-39.7,35.7-50.9a104.3,104.3,0,0,1,47.2-11m0-7.7h0c-18.2,0-35.7,4.1-50.6,12C22.1,111.5,7.2,133,6.9,156.2a56.3,56.3,0,0,0,1.9,15.3c4.3,15.8,15.5,30.2,31.6,40.4s36,15.8,56.5,16.1h1.4a114.2,114.2,0,0,0,28.8-3.6,102.6,102.6,0,0,0,36.6,20.5l16.3,5.3-6.9-15.8c-0.7-1.7-1.5-3.3-2.3-4.9a70.2,70.2,0,0,1-7.4-23.1c16.1-12.9,25-29.9,25.2-48.1s-9.3-37.4-26.8-51S122.7,87,98.8,86.7H97.3Z"/></g><path id="shade" class="cls-3" d="M154.2,148.4s-23.3,20.3-62.4,48.8L16.3,169.6a53.1,53.1,0,0,1-1.7-13.2c0.3-21.2,14.3-39.7,35.7-50.9Z"/><path id="side" class="cls-4" d="M179,15.1h0.3L107.8,8.4h-0.4l-21,1.9-5.8.5L40.3,14.5h-2l-0.8.2H37.1l-0.4.2-0.8.3H35.5l-0.6.5-0.4.2-0.3.2a2828370.6,2828370.6,0,0,1-.2.2,159222335105192.6,159222335105192.6,0,0,1-.2.2l-0.4.3-0.4.3H32.9a0.4,0.4,0,0,0-.2.2l-0.4.3-0.3.3-0.2.2H31.7l-0.3.3-0.3.4-0.3.4h0l-0.3.3-0.3.4-0.3.4h0l-0.3.4-0.3.4a1.5,1.5,0,0,0-.4.6c0,0.1-.1.1-0.1,0.2H28.7l-0.3.5-0.3.5a0.3,0.3,0,0,1-.1.2h0c0,0.1-.1.1-0.1,0.2a1.4,1.4,0,0,0-.2.6,1.4,1.4,0,0,0-.2.6,0.2,0.2,0,0,1-.1.2h0c0,0.1-.1.3-0.1,0.4l-0.2.6-0.2.6h0a2.2,2.2,0,0,0-.1.8c0,0.2-.1.4-0.1,0.6h0v0.2c0,0.3-.1.6-0.1,0.9s-0.1.4-.1,0.6h0v1.6h0c0,0.6.1,1.1,0.1,1.7l16.6,86,3.7,30.2c0,0.2.1,0.3,0.1,0.5a0.5,0.5,0,0,0,.2.4c0.1,0.1.1,0.3,0.2,0.4l0.3,0.3c13.3,14.7,27,29.4,40.6,44l-0.3-.4a0.8,0.8,0,0,1-.2-0.5l-0.2-.5c0-.2-0.1-0.4-0.1-0.6l-2.2-38L77.1,53.1a19.2,19.2,0,0,1,0-2.4,3.8,3.8,0,0,1,.1-1c0-.5.1-1,0.1-1.5s0.1-.6.1-0.9,0.1-1,.2-1.5,0.1-.7.2-1a9.4,9.4,0,0,1,.4-1.6c0.2-.8.5-1.5,0.7-2.3H79l0.9-2.2h0A21.2,21.2,0,0,1,81,36.4h0l1.2-2,1.4-1.9h0l1.5-1.7h0l1.5-1.5h0.1a10.9,10.9,0,0,1,1.7-1.3l1.8-1.1h0l1.7-.8h0.2l1.7-.5h0.3a11.3,11.3,0,0,1,1.8-.3l50.4-5.9,7.1-.8,25.1-2.9h0.4c0-.3,0-0.3.1-0.3h0Z"/><g id="Front"><g id="Front-2" data-name="Front"><path class="cls-5" d="M184.3,24.6V26c0,0.5-.1.9-0.1,1.4a7.7,7.7,0,0,1-.2,1.5l-0.3,1.5c-11.2,39.1-20.9,78.3-29.6,118-0.1.2-.1,0.5-0.2,0.7s-0.1.5-.2,0.7l-0.3.7-0.3.7a2.5,2.5,0,0,1-.4.7l-0.4.7-0.4.7-0.5.7-0.5.7-0.5.7-0.6.7-0.6.6-0.6.6-0.6.6-0.6.5-0.6.5-19.4,13.9-15.9,11.4-13.8,9.9-0.9.6-0.9.5-0.9.4-0.8.4H93.4l-0.6.2h-3l-0.6-.2-0.5-.3-0.4-.4-0.3-.5a1.4,1.4,0,0,1-.2-0.6,1.5,1.5,0,0,1-.1-0.7l-2.2-38L77.1,53.1a20.9,20.9,0,0,1,0-2.5,21.1,21.1,0,0,1,.2-2.5,21.7,21.7,0,0,1,.4-2.5l0.6-2.4a22.5,22.5,0,0,1,.8-2.4L80,38.5a22.6,22.6,0,0,1,1.1-2.2l1.2-2,1.4-1.9,1.5-1.7,1.6-1.5,1.7-1.3,1.8-1.1,1.8-.9,1.9-.6,1.9-.4L146.3,19l7.1-.8,25.1-2.9h1l0.8,0.2,0.7,0.3,0.6,0.4,0.6,0.6a2.2,2.2,0,0,1,.5.8l0.5,0.9,0.4,1,0.3,1.1a5,5,0,0,1,.2,1.2,5.7,5.7,0,0,1,.1,1.3A8.1,8.1,0,0,1,184.3,24.6Z"/></g></g><path class="cls-4" d="M148.5,113.4l-48.2,18a5,5,0,0,0-3.2,4.6v37.6a5,5,0,0,0,7.8,4.1l42.2-28.4a4.9,4.9,0,0,0,2.1-3l6-27.1A5,5,0,0,0,148.5,113.4Z"/><path class="cls-6" d="M149.1,73.1c-3.7,13.2-14.9,23.3-24.9,22.6s-15.1-12.1-11.4-25.3,14.9-23.3,24.9-22.6S152.9,59.9,149.1,73.1Z"/></svg>