<svg id="Layer_1" data-name="Layer 1" xmlns="http://www.w3.org/2000/svg" viewBox="0 0 459.7 244.5"><defs><style>.cls-1{fill:#29398c;}.cls-2{fill:#2b3990;}</style></defs><title>ohhsnap</title><path class="cls-1" d="M14.3,228.1h5.6a16.4,16.4,0,0,1,4,.4,9.8,9.8,0,0,1,3.1,1.4,6.2,6.2,0,0,1,2,2.5,8.4,8.4,0,0,1,.7,3.7,9.5,9.5,0,0,1-.8,4,7.3,7.3,0,0,1-2.2,2.7,8.6,8.6,0,0,1-3.2,1.5,15.8,15.8,0,0,1-3.8.5H16.8v10.5H16.2a1.6,1.6,0,0,1-.7,0H14.2V228.1h0.1ZM16.9,242h2.8l2.6-.2a6.3,6.3,0,0,0,2.4-.9,5.2,5.2,0,0,0,1.7-1.9,7.4,7.4,0,0,0,.7-3.3,6.8,6.8,0,0,0-.5-2.7,4.9,4.9,0,0,0-1.4-1.8,7,7,0,0,0-2.3-1,13.9,13.9,0,0,0-3-.3H17V242H16.9Z" transform="translate(-8 -11)"/><path class="cls-1" d="M41,228.1h2.6v11.4H56.8V228.1h2.6v26.7H56.8v-13H43.6v13H43a1.6,1.6,0,0,1-.7,0H41V228.1h0Z" transform="translate(-8 -11)"/><path class="cls-1" d="M82.6,255.3a10.7,10.7,0,0,1-4.9-1,8.7,8.7,0,0,1-3.4-2.9,11.9,11.9,0,0,1-2-4.4,19.5,19.5,0,0,1-.7-5.6,18.8,18.8,0,0,1,.7-5.5,14.8,14.8,0,0,1,2-4.4,9.6,9.6,0,0,1,3.4-2.9,12.5,12.5,0,0,1,9.8,0,8.7,8.7,0,0,1,3.4,2.9,11.9,11.9,0,0,1,2,4.4,19.3,19.3,0,0,1,.7,5.5,20,20,0,0,1-.7,5.6,13.7,13.7,0,0,1-2,4.4,10.5,10.5,0,0,1-3.4,2.9A12.2,12.2,0,0,1,82.6,255.3Zm0-2.4a8.4,8.4,0,0,0,3.7-.8,7.4,7.4,0,0,0,2.6-2.4,9.8,9.8,0,0,0,1.5-3.6,21.4,21.4,0,0,0,0-9.2,9.8,9.8,0,0,0-1.5-3.6,7.1,7.1,0,0,0-2.6-2.3,7.2,7.2,0,0,0-3.7-.8,8.4,8.4,0,0,0-3.7.8,7.2,7.2,0,0,0-2.6,2.3,9.8,9.8,0,0,0-1.5,3.6,21.4,21.4,0,0,0,0,9.2,9.8,9.8,0,0,0,1.5,3.6,7.5,7.5,0,0,0,2.6,2.4A7.2,7.2,0,0,0,82.6,252.9Z" transform="translate(-8 -11)"/><path class="cls-1" d="M108.6,230.4h-7.2a1.1,1.1,0,0,0-.1-0.5v-1.2a1.3,1.3,0,0,1,.1-0.6h16.9a1.1,1.1,0,0,0,.1.5v1.2a1.3,1.3,0,0,1-.1.6h-7.2v24.4h-2.6V230.4h0.1Z" transform="translate(-8 -11)"/><path class="cls-1" d="M137.3,255.3a10.7,10.7,0,0,1-4.9-1,8.7,8.7,0,0,1-3.4-2.9,11.9,11.9,0,0,1-2-4.4,19.5,19.5,0,0,1-.7-5.6,18.8,18.8,0,0,1,.7-5.5,14.8,14.8,0,0,1,2-4.4,9.6,9.6,0,0,1,3.4-2.9,12.5,12.5,0,0,1,9.8,0,8.7,8.7,0,0,1,3.4,2.9,11.9,11.9,0,0,1,2,4.4,19.3,19.3,0,0,1,.7,5.5,20,20,0,0,1-.7,5.6,13.7,13.7,0,0,1-2,4.4,9.6,9.6,0,0,1-3.4,2.9A13,13,0,0,1,137.3,255.3Zm0-2.4a8.4,8.4,0,0,0,3.7-.8,7.4,7.4,0,0,0,2.6-2.4,9.8,9.8,0,0,0,1.5-3.6,21.4,21.4,0,0,0,0-9.2,9.8,9.8,0,0,0-1.5-3.6A7.1,7.1,0,0,0,141,231a7.2,7.2,0,0,0-3.7-.8,8.4,8.4,0,0,0-3.7.8,7.2,7.2,0,0,0-2.6,2.3,9.8,9.8,0,0,0-1.5,3.6,21.4,21.4,0,0,0,0,9.2,9.8,9.8,0,0,0,1.5,3.6,7.5,7.5,0,0,0,2.6,2.4A7,7,0,0,0,137.3,252.9Z" transform="translate(-8 -11)"/><path class="cls-1" d="M176,228.1h5.6a11.4,11.4,0,0,1,6.7,1.7,6.2,6.2,0,0,1,2.3,5.3,4.6,4.6,0,0,1-.4,2.1,9.1,9.1,0,0,1-.9,1.7,5.8,5.8,0,0,1-1.4,1.3l-1.7.8a7.9,7.9,0,0,1,2.2.6,5,5,0,0,1,1.9,1.3,5.7,5.7,0,0,1,1.3,2.1,8.5,8.5,0,0,1,.5,3,7.8,7.8,0,0,1-.8,3.5,6.4,6.4,0,0,1-2.2,2.4,11.6,11.6,0,0,1-3.4,1.4,18.8,18.8,0,0,1-4.3.5h-4.3l-1.2-.2v-27H176Zm6.1,11.4c2,0,3.5-.4,4.4-1.3a4.8,4.8,0,0,0,1.4-3.5,4.5,4.5,0,0,0-1.5-3.4,6.7,6.7,0,0,0-4.6-1.4h-3.2v9.3h3.5Zm-3.6,13.2h3.2a12.7,12.7,0,0,0,2.8-.3,9.2,9.2,0,0,0,2.5-.9,4.6,4.6,0,0,0,1.7-1.7,5.9,5.9,0,0,0,0-5.2,5,5,0,0,0-1.5-1.7,7,7,0,0,0-2.3-1,12.7,12.7,0,0,0-2.8-.3h-3.8v10.9h0.2Z" transform="translate(-8 -11)"/><path class="cls-1" d="M213.6,255.3a10.7,10.7,0,0,1-4.9-1,8.7,8.7,0,0,1-3.4-2.9,11.9,11.9,0,0,1-2-4.4,19.5,19.5,0,0,1-.7-5.6,18.8,18.8,0,0,1,.7-5.5,14.8,14.8,0,0,1,2-4.4,9.6,9.6,0,0,1,3.4-2.9,12.5,12.5,0,0,1,9.8,0,8.7,8.7,0,0,1,3.4,2.9,11.9,11.9,0,0,1,2,4.4,19.3,19.3,0,0,1,.7,5.5,20,20,0,0,1-.7,5.6,13.7,13.7,0,0,1-2,4.4,9.6,9.6,0,0,1-3.4,2.9A12.6,12.6,0,0,1,213.6,255.3Zm0-2.4a8.4,8.4,0,0,0,3.7-.8,7.4,7.4,0,0,0,2.6-2.4,9.8,9.8,0,0,0,1.5-3.6,21.4,21.4,0,0,0,0-9.2,9.8,9.8,0,0,0-1.5-3.6,7.1,7.1,0,0,0-2.6-2.3,7.2,7.2,0,0,0-3.7-.8,8.4,8.4,0,0,0-3.7.8,7.2,7.2,0,0,0-2.6,2.3,9.8,9.8,0,0,0-1.5,3.6,21.4,21.4,0,0,0,0,9.2,9.8,9.8,0,0,0,1.5,3.6,7.5,7.5,0,0,0,2.6,2.4A7,7,0,0,0,213.6,252.9Z" transform="translate(-8 -11)"/><path class="cls-1" d="M246.5,255.3a10.7,10.7,0,0,1-4.9-1,8.7,8.7,0,0,1-3.4-2.9,11.9,11.9,0,0,1-2-4.4,19.5,19.5,0,0,1-.7-5.6,18.8,18.8,0,0,1,.7-5.5,14.8,14.8,0,0,1,2-4.4,9.6,9.6,0,0,1,3.4-2.9,12.5,12.5,0,0,1,9.8,0,8.7,8.7,0,0,1,3.4,2.9,11.9,11.9,0,0,1,2,4.4,19.3,19.3,0,0,1,.7,5.5,20,20,0,0,1-.7,5.6,13.7,13.7,0,0,1-2,4.4,9.6,9.6,0,0,1-3.4,2.9A12.2,12.2,0,0,1,246.5,255.3Zm0-2.4a8.4,8.4,0,0,0,3.7-.8,7.4,7.4,0,0,0,2.6-2.4,9.8,9.8,0,0,0,1.5-3.6,21.4,21.4,0,0,0,0-9.2,9.8,9.8,0,0,0-1.5-3.6,7.1,7.1,0,0,0-2.6-2.3,7.2,7.2,0,0,0-3.7-.8,8.4,8.4,0,0,0-3.7.8,7.2,7.2,0,0,0-2.6,2.3,9.8,9.8,0,0,0-1.5,3.6,21.4,21.4,0,0,0,0,9.2,9.8,9.8,0,0,0,1.5,3.6,7.5,7.5,0,0,0,2.6,2.4A7.2,7.2,0,0,0,246.5,252.9Z" transform="translate(-8 -11)"/><path class="cls-1" d="M272.6,230.4h-7.2a1.1,1.1,0,0,0-.1-0.5v-1.2a1.3,1.3,0,0,1,.1-0.6h16.9a1.1,1.1,0,0,0,.1.5,1.2,1.2,0,0,1,0,.6v0.6a1.3,1.3,0,0,1-.1.6h-7.2v24.4h-0.6a1.6,1.6,0,0,1-.7,0h-1.3V230.4h0.1Z" transform="translate(-8 -11)"/><path class="cls-1" d="M292.9,228.1h2.6v11.4h13.2V228.1h2.6v26.7h-0.6a1.6,1.6,0,0,1-.7,0h-1.3v-13H295.5v13h-2.6V228.1h0Z" transform="translate(-8 -11)"/><path class="cls-2" d="M8.2,179.9H38.3c0,13.6,13.6,15.8,20.4,16.2s13.7-1.3,13.7-8.1c0-12.6-62.1-7.3-62.1-48.5,0-23.9,22.6-34.8,38.5-34.8,13.6,0,27.3,4.4,33.8,16.5l1.6-13.6H112v40.6H82.7c0-12-9.4-18.8-20.7-18.8-4.7,0-11.2,2.9-11.2,8.6,0,16.7,64,12.8,64,50.8,0,25.2-23.6,34.3-42.9,34.3-16.3,0-27.7-7.6-33.8-14.9l-1.8,12.5H8V179.9H8.2Z" transform="translate(-8 -11)"/><path class="cls-2" d="M123.1,220.7V199.5h6.8V160.8h-6.8v-21h34.4l3.7,10c5.5-7.6,12.9-12.9,23.1-12.9,25.1,0,29.3,18.6,29.3,35.6v27h7.6v21.2H180.4V176.5c0-5.5.5-15-9.1-15s-10.2,8.1-10.2,15v23h11.6v21.2H123.1Z" transform="translate(-8 -11)"/><path class="cls-2" d="M229.5,146.6c6.5-3.9,20.4-11.5,35.3-11.5,19.4,0,43.8,7.3,43.8,33.3V200h9.7v20.7H283.7l-3.9-7.3c-6,8.2-16,10.4-21.8,10.4-15.4,0-31.9-8.2-31.9-27S241.5,167,259.7,167c9.5,0,15.2,4.7,16,5.7V167c0-7.3-6.6-9.1-15.4-9.1s-18,4-24.1,7.4Zm46.2,44.7c-0.5-.8-2.7-4.7-9.5-4.7s-9.4,3.6-9.4,8.6,3.7,7.6,8.6,7.6a12.9,12.9,0,0,0,10.4-5.3v-6.2h-0.1Z" transform="translate(-8 -11)"/><path class="cls-2" d="M331.5,232.5V161.3h-6.8V139.8h37l2.7,5.7c3.1-2.3,9.9-7,19.6-7,25.2,0,38.2,19.4,38.2,42.4,0,25.7-16,41.6-36.9,41.6-13.4,0-19.9-5.3-21-6.3v16.3H373v21.2H324.6V232.5h6.9Zm44.3-71.2c-6.3,0-12.1,7.9-11.5,20.7,0,11,5.5,19.4,11.6,19.4s11.5-7.9,11.5-20.2C387.5,171.5,383,161.3,375.8,161.3Z" transform="translate(-8 -11)"/><path class="cls-2" d="M446.8,206c11.5,0,19.2,7.9,19.2,17.1s-7.4,16.7-19.2,16.7-18.4-8.2-18.4-16.7S435.2,206,446.8,206ZM429,126.6h38.7v30.7l-8.6,40.8H437.8l-8.7-40.8V126.6H429Z" transform="translate(-8 -11)"/><path class="cls-2" d="M111.4,75.2c0-34.9,23.3-59,56.8-59,39.6,0,58.1,23.8,58.1,60.2s-20.4,58.9-56.9,58.9C135.5,135.2,111.4,115.7,111.4,75.2Zm74.4,1.2c0-19.6-5.3-35.3-17.8-35.3-9.9-.2-16.7,14.1-16.7,34.1s7.6,34.6,18,34.6S185.8,96.4,185.8,76.4Z" transform="translate(-8 -11)"/><path class="cls-2" d="M224.7,132.3V111.1h6.8V32h-6.8V11h39.1V61.5c1.8-2.9,13.6-12.9,25.4-12.9,25.1,0,28.3,18.6,28.3,35.6v27h7.6v21.2H283.5v-44c0-5.5,0-15-9.5-15s-10.2,8.1-10.2,15v22.8h11.6v21.2H224.7Z" transform="translate(-8 -11)"/><path class="cls-2" d="M323.5,132.3V111.1h6.8V32h-6.8V11h39.1V61.5c1.8-2.9,13.6-12.9,25.4-12.9,25.1,0,28.3,18.6,28.3,35.6v27h7.6v21.2H382.3v-44c0-5.5,0-15-9.5-15s-10.2,8.1-10.2,15v22.8h11.6v21.2H323.5Z" transform="translate(-8 -11)"/></svg>